<?xml version="1.0" encoding="utf-8"?>
<!-- Generator: Adobe Illustrator 18.1.0, SVG Export Plug-In . SVG Version: 6.00 Build 0)  -->
<svg version="1.1" id="Layer_1" xmlns="http://www.w3.org/2000/svg" xmlns:xlink="http://www.w3.org/1999/xlink" x="0px" y="0px"
	 viewBox="-49 141 512 512" enable-background="new -49 141 512 512" xml:space="preserve">
<g>
	<path fill="#FFFFFF" d="M244.6,306.2c-39.2,4.4-90.4,7.3-127,23.4c-42.3,18.3-72,55.6-72,110.4c0,70.2,44.2,105.3,101.1,105.3
		c48,0,74.3-11.3,111.4-49.1c12.3,17.7,16.3,26.4,38.7,45c5,2.7,11.5,2.4,16-1.6l0.1,0.2c13.5-12,38-33.3,51.8-44.9
		c5.5-4.5,4.5-11.8,0.2-17.9c-12.3-17.1-25.5-31-25.5-62.6V309.2c0-44.6,3.2-85.5-29.7-116.2c-25.9-24.9-68.9-33.6-101.7-33.6
		c-64.3,0-136,24-151,103.4c-1.6,8.4,4.5,12.9,10.1,14.1l65.5,7.1c6.1-0.3,10.6-6.3,11.7-12.4c5.6-27.4,28.5-40.6,54.3-40.6
		c13.9,0,29.7,5.1,37.9,17.5c9.5,13.9,8.2,32.9,8.2,49V306.2z M231.9,446.6c-10.7,19-27.8,30.7-46.7,30.7c-25.9,0-41.1-19.7-41.1-49
		c0-57.5,51.6-68,100.5-68V375C244.6,401.3,245.2,423.2,231.9,446.6z"/>
	<path fill="#FFFFFF" d="M460.5,526.6c-6.1-7.5-58.6-14-90.6,8.5c-4.9,3.5-4.1,8.2,1.4,7.6c18-2.2,58.2-7,65.3,2.2
		c7.1,9.2-8,46.9-14.7,63.8c-2,5.1,2.3,7.2,7,3.3C458.9,586.8,466.7,534.2,460.5,526.6z"/>
	<path fill="#FFFFFF" d="M405.3,558.4c-62.7,26.6-130.9,39.5-192.9,39.5c-91.9,0-180.9-25.2-252.9-67.1c-6.3-3.7-11,2.8-5.7,7.5
		c66.7,60.2,154.8,96.4,252.7,96.4c69.8,0,150.9-22,206.9-63.3C422.6,564.6,414.7,554.4,405.3,558.4z"/>
</g>
</svg>
