<?xml version="1.0" encoding="utf-8"?>
<!-- Generator: Adobe Illustrator 18.1.1, SVG Export Plug-In . SVG Version: 6.00 Build 0)  -->
<svg version="1.1" id="Layer_1" xmlns="http://www.w3.org/2000/svg" xmlns:xlink="http://www.w3.org/1999/xlink" x="0px" y="0px"
	 viewBox="0 0 42 42" enable-background="new 0 0 42 42" xml:space="preserve">
<path fill="#CCCCCC" d="M41.6,0.4c-1.4-1.4-6,1.1-7.3,2.4l-5.4,5.5H4c-0.6,0-1.1,0.4-1.2,1C2.7,9.9,3,10.4,3.6,10.7L20,17.1
	l-10,10.1H0.4c-0.2,0-0.4,0.1-0.4,0.3C0,27.8,0.1,28,0.3,28l8,3.2c0,0.2,0.1,0.4,0.2,0.6l-0.3,0.4c-0.5,0.5-0.5,1.3,0,1.8
	c0.5,0.5,1.3,0.5,1.8,0l0.3-0.3c0.2,0.1,0.4,0.2,0.6,0.2l3.1,7.9c0.1,0.2,0.3,0.3,0.5,0.3c0.1,0,0.2-0.1,0.2-0.1
	c0.1-0.1,0.1-0.2,0.1-0.3v-9.3L25,22l6.4,16.5c0.2,0.6,0.8,0.9,1.4,0.8c0.3,0,0.5-0.2,0.6-0.3c0.2-0.2,0.4-0.5,0.4-0.9V13.2l5.4-5.5
	C40.6,6.4,43,1.8,41.6,0.4z"/>
<g>
</g>
<g>
</g>
<g>
</g>
<g>
</g>
<g>
</g>
<g>
</g>
<g>
</g>
<g>
</g>
<g>
</g>
<g>
</g>
<g>
</g>
<g>
</g>
<g>
</g>
<g>
</g>
<g>
</g>
</svg>
