<?xml version="1.0" encoding="utf-8"?>
<!-- Generator: Adobe Illustrator 18.1.1, SVG Export Plug-In . SVG Version: 6.00 Build 0)  -->
<svg version="1.1" id="Layer_1" xmlns="http://www.w3.org/2000/svg" xmlns:xlink="http://www.w3.org/1999/xlink" x="0px" y="0px"
	 viewBox="0 0 41 45.3" enable-background="new 0 0 41 45.3" xml:space="preserve">
<circle fill="#FEDE07" cx="25.7" cy="15.1" r="9.1"/>
<line fill="none" stroke="#FEDE07" stroke-width="2" stroke-linecap="round" stroke-miterlimit="10" x1="25" y1="4" x2="25" y2="1"/>
<line fill="none" stroke="#FEDE07" stroke-width="2" stroke-linecap="round" stroke-miterlimit="10" x1="25" y1="29" x2="25" y2="26"/>
<line fill="none" stroke="#FEDE07" stroke-width="2" stroke-linecap="round" stroke-miterlimit="10" x1="15" y1="16" x2="11" y2="16"/>
<line fill="none" stroke="#FEDE07" stroke-width="2" stroke-linecap="round" stroke-miterlimit="10" x1="40" y1="16" x2="36" y2="16"/>
<line fill="none" stroke="#FEDE07" stroke-width="2" stroke-linecap="round" stroke-miterlimit="10" x1="18.2" y1="7.7" x2="15.7" y2="5.3"/>
<line fill="none" stroke="#FEDE07" stroke-width="2" stroke-linecap="round" stroke-miterlimit="10" x1="35.7" y1="25.3" x2="33.3" y2="22.8"/>
<line fill="none" stroke="#FEDE07" stroke-width="2" stroke-linecap="round" stroke-miterlimit="10" x1="18.2" y1="22.8" x2="15.7" y2="25.3"/>
<line fill="none" stroke="#FEDE07" stroke-width="2" stroke-linecap="round" stroke-miterlimit="10" x1="35.7" y1="5.3" x2="33.3" y2="7.7"/>
<path fill="#BCBCBC" d="M30.9,24.2c0-3.3-2.5-5.9-5.7-6.2c0.1-0.4,0.1-0.7,0.1-1.1c0-3.4-2.8-6.2-6.2-6.2c-2.7,0-4.9,1.7-5.8,4
	c-1.3-0.9-3-1.4-4.7-1.4c-4.7,0-8.6,3.8-8.6,8.6c0,4.7,3.8,8.5,8.4,8.6l18.2,0C29.3,29.7,30.9,27,30.9,24.2z"/>
<polygon fill="#F9E20D" points="14.6,20.2 5.3,32.9 10.6,34.5 6.9,45.3 16.7,32.6 11.5,30.7 "/>
<polygon fill="#F9E20D" points="21.9,32 17.1,38.7 19.8,39.5 17.9,45.2 23,38.5 20.3,37.5 "/>
<g>
</g>
<g>
</g>
<g>
</g>
<g>
</g>
<g>
</g>
<g>
</g>
<g>
</g>
<g>
</g>
<g>
</g>
<g>
</g>
<g>
</g>
<g>
</g>
<g>
</g>
<g>
</g>
<g>
</g>
</svg>
