<?xml version="1.0" encoding="utf-8"?>
<!-- Generator: Adobe Illustrator 18.1.1, SVG Export Plug-In . SVG Version: 6.00 Build 0)  -->
<svg version="1.1" id="Layer_1" xmlns="http://www.w3.org/2000/svg" xmlns:xlink="http://www.w3.org/1999/xlink" x="0px" y="0px"
	 viewBox="0 0 41 45.5" enable-background="new 0 0 41 45.5" xml:space="preserve">
<circle fill="#FEDE07" cx="25.7" cy="15.8" r="9.1"/>
<line fill="none" stroke="#FEDE07" stroke-width="2" stroke-linecap="round" stroke-miterlimit="10" x1="25" y1="5" x2="25" y2="1"/>
<line fill="none" stroke="#FEDE07" stroke-width="2" stroke-linecap="round" stroke-miterlimit="10" x1="25" y1="30" x2="25" y2="27"/>
<line fill="none" stroke="#FEDE07" stroke-width="2" stroke-linecap="round" stroke-miterlimit="10" x1="15" y1="16" x2="11" y2="16"/>
<line fill="none" stroke="#FEDE07" stroke-width="2" stroke-linecap="round" stroke-miterlimit="10" x1="40" y1="16" x2="36" y2="16"/>
<line fill="none" stroke="#FEDE07" stroke-width="2" stroke-linecap="round" stroke-miterlimit="10" x1="18.2" y1="8.4" x2="15.7" y2="6"/>
<line fill="none" stroke="#FEDE07" stroke-width="2" stroke-linecap="round" stroke-miterlimit="10" x1="35.7" y1="26" x2="33.3" y2="23.5"/>
<line fill="none" stroke="#FEDE07" stroke-width="2" stroke-linecap="round" stroke-miterlimit="10" x1="18.2" y1="23.5" x2="15.7" y2="26"/>
<line fill="none" stroke="#FEDE07" stroke-width="2" stroke-linecap="round" stroke-miterlimit="10" x1="35.7" y1="6" x2="33.3" y2="8.4"/>
<path fill="#BCBCBC" d="M30.9,24.9c0-3.3-2.5-5.9-5.7-6.2c0.1-0.4,0.1-0.7,0.1-1.1c0-3.4-2.8-6.2-6.2-6.2c-2.7,0-4.9,1.7-5.8,4
	c-1.3-0.9-3-1.4-4.7-1.4C3.8,14,0,17.8,0,22.5c0,4.7,3.8,8.5,8.4,8.6l18.2,0C29.3,30.4,30.9,27.7,30.9,24.9z"/>
<path fill="#429ABD" d="M21.5,36.4c0.4-0.9,2.8-2.1,2.8-2.1s0.8,2.6,0.4,3.4c-0.4,0.9-1.4,1.3-2.3,0.9
	C21.5,38.3,21.1,37.3,21.5,36.4z"/>
<path fill="#429ABD" d="M12.7,36.4c0.4-0.9,2.8-2.1,2.8-2.1s0.8,2.6,0.4,3.4c-0.4,0.9-1.4,1.3-2.3,0.9
	C12.7,38.3,12.3,37.3,12.7,36.4z"/>
<path fill="#429ABD" d="M4.5,36.4c0.4-0.9,2.8-2.1,2.8-2.1s0.8,2.6,0.4,3.4c-0.4,0.9-1.4,1.3-2.3,0.9S4.1,37.3,4.5,36.4z"/>
<path fill="#429ABD" d="M18.3,43.1C18.6,42.2,21,41,21,41s0.8,2.6,0.4,3.4c-0.4,0.9-1.4,1.3-2.3,0.9C18.3,45,17.9,44,18.3,43.1z"/>
<path fill="#429ABD" d="M9.4,43.1c0.4-0.9,2.8-2.1,2.8-2.1s0.8,2.6,0.4,3.4c-0.4,0.9-1.4,1.3-2.3,0.9C9.5,45,9.1,44,9.4,43.1z"/>
<g>
</g>
<g>
</g>
<g>
</g>
<g>
</g>
<g>
</g>
<g>
</g>
<g>
</g>
<g>
</g>
<g>
</g>
<g>
</g>
<g>
</g>
<g>
</g>
<g>
</g>
<g>
</g>
<g>
</g>
</svg>
