<?xml version="1.0" encoding="utf-8"?>
<!-- Generator: Adobe Illustrator 18.1.1, SVG Export Plug-In . SVG Version: 6.00 Build 0)  -->
<svg version="1.1" id="Layer_1" xmlns="http://www.w3.org/2000/svg" xmlns:xlink="http://www.w3.org/1999/xlink" x="0px" y="0px"
	 viewBox="0 0 41 48.1" enable-background="new 0 0 41 48.1" xml:space="preserve">
<circle fill="#ABC8E2" cx="6.1" cy="35.4" r="1.4"/>
<circle fill="#ABC8E2" cx="12.4" cy="35.4" r="1.4"/>
<circle fill="#ABC8E2" cx="18.7" cy="35.4" r="1.4"/>
<circle fill="#ABC8E2" cx="9.6" cy="40.4" r="1.4"/>
<circle fill="#ABC8E2" cx="25" cy="35.4" r="1.4"/>
<circle fill="#ABC8E2" cx="19.4" cy="40.4" r="1.4"/>
<circle fill="#ABC8E2" cx="25" cy="41.8" r="1.4"/>
<circle fill="#ABC8E2" cx="15.2" cy="41.8" r="1.4"/>
<circle fill="#ABC8E2" cx="19.4" cy="46.7" r="1.4"/>
<circle fill="#ABC8E2" cx="9.6" cy="46.7" r="1.4"/>
<circle fill="#FEDE07" cx="25.7" cy="15.8" r="9.1"/>
<line fill="none" stroke="#FEDE07" stroke-width="2" stroke-linecap="round" stroke-miterlimit="10" x1="25" y1="5" x2="25" y2="1"/>
<line fill="none" stroke="#FEDE07" stroke-width="2" stroke-linecap="round" stroke-miterlimit="10" x1="25" y1="30" x2="25" y2="27"/>
<line fill="none" stroke="#FEDE07" stroke-width="2" stroke-linecap="round" stroke-miterlimit="10" x1="15" y1="16" x2="11" y2="16"/>
<line fill="none" stroke="#FEDE07" stroke-width="2" stroke-linecap="round" stroke-miterlimit="10" x1="40" y1="16" x2="36" y2="16"/>
<line fill="none" stroke="#FEDE07" stroke-width="2" stroke-linecap="round" stroke-miterlimit="10" x1="18.2" y1="8.4" x2="15.7" y2="6"/>
<line fill="none" stroke="#FEDE07" stroke-width="2" stroke-linecap="round" stroke-miterlimit="10" x1="35.7" y1="26" x2="33.3" y2="23.5"/>
<line fill="none" stroke="#FEDE07" stroke-width="2" stroke-linecap="round" stroke-miterlimit="10" x1="18.2" y1="23.5" x2="15.7" y2="26"/>
<line fill="none" stroke="#FEDE07" stroke-width="2" stroke-linecap="round" stroke-miterlimit="10" x1="35.7" y1="6" x2="33.3" y2="8.4"/>
<path fill="#EAEAEA" d="M30.9,24.9c0-3.3-2.5-5.9-5.7-6.2c0.1-0.4,0.1-0.7,0.1-1.1c0-3.4-2.8-6.2-6.2-6.2c-2.7,0-4.9,1.7-5.8,4
	c-1.3-0.9-3-1.4-4.7-1.4C3.8,14,0,17.8,0,22.5c0,4.7,3.8,8.5,8.4,8.6l18.2,0C29.3,30.4,30.9,27.7,30.9,24.9z"/>
<g>
</g>
<g>
</g>
<g>
</g>
<g>
</g>
<g>
</g>
<g>
</g>
<g>
</g>
<g>
</g>
<g>
</g>
<g>
</g>
<g>
</g>
<g>
</g>
<g>
</g>
<g>
</g>
<g>
</g>
</svg>
