<?xml version="1.0" encoding="utf-8"?>
<!-- Generator: Adobe Illustrator 18.1.1, SVG Export Plug-In . SVG Version: 6.00 Build 0)  -->
<svg version="1.1" id="Layer_1" xmlns="http://www.w3.org/2000/svg" xmlns:xlink="http://www.w3.org/1999/xlink" x="0px" y="0px"
	 viewBox="0 0 39.7 46.2" enable-background="new 0 0 39.7 46.2" xml:space="preserve">
<path fill="#FEDE07" d="M25.9,3.8c5.5,0,9.9,4.5,9.9,9.9c0,1.8-0.5,3.4-1.3,4.8c3-1.7,5.1-5,5.1-8.7c0-5.5-4.5-9.9-9.9-9.9
	c-3.7,0-7,2.1-8.7,5.1C22.5,4.3,24.2,3.8,25.9,3.8z"/>
<path fill="#BCBCBC" d="M30.9,24.7c0-3.3-2.5-5.9-5.7-6.2c0.1-0.4,0.1-0.7,0.1-1.1c0-3.4-2.8-6.2-6.2-6.2c-2.7,0-4.9,1.7-5.8,4
	c-1.3-0.9-3-1.4-4.7-1.4c-4.7,0-8.6,3.8-8.6,8.6c0,4.7,3.8,8.5,8.4,8.6l18.2,0C29.3,30.2,30.9,27.6,30.9,24.7z"/>
<polygon fill="#F9E20D" points="13.6,21.1 4.3,33.7 9.6,35.4 5.9,46.2 15.7,33.5 10.5,31.6 "/>
<polygon fill="#F9E20D" points="21.1,32 16.2,38.6 19,39.5 17,45.1 22.2,38.5 19.5,37.5 "/>
<g>
</g>
<g>
</g>
<g>
</g>
<g>
</g>
<g>
</g>
<g>
</g>
<g>
</g>
<g>
</g>
<g>
</g>
<g>
</g>
<g>
</g>
<g>
</g>
<g>
</g>
<g>
</g>
<g>
</g>
</svg>
