<?xml version="1.0" encoding="utf-8"?>
<!-- Generator: Adobe Illustrator 18.1.1, SVG Export Plug-In . SVG Version: 6.00 Build 0)  -->
<svg version="1.1" id="Layer_1" xmlns="http://www.w3.org/2000/svg" xmlns:xlink="http://www.w3.org/1999/xlink" x="0px" y="0px"
	 viewBox="0 0 39.7 45.4" enable-background="new 0 0 39.7 45.4" xml:space="preserve">
<path fill="#429ABD" d="M21.5,36.3c0.4-0.9,2.8-2.1,2.8-2.1s0.8,2.6,0.4,3.4c-0.4,0.9-1.4,1.3-2.3,0.9
	C21.5,38.2,21.1,37.2,21.5,36.3z"/>
<path fill="#429ABD" d="M12.7,36.3c0.4-0.9,2.8-2.1,2.8-2.1s0.8,2.6,0.4,3.4c-0.4,0.9-1.4,1.3-2.3,0.9
	C12.7,38.2,12.3,37.2,12.7,36.3z"/>
<path fill="#429ABD" d="M4.5,36.3c0.4-0.9,2.8-2.1,2.8-2.1s0.8,2.6,0.4,3.4c-0.4,0.9-1.4,1.3-2.3,0.9C4.5,38.2,4.1,37.2,4.5,36.3z"
	/>
<path fill="#429ABD" d="M18.3,42.9c0.4-0.9,2.8-2.1,2.8-2.1s0.8,2.6,0.4,3.4c-0.4,0.9-1.4,1.3-2.3,0.9
	C18.3,44.8,17.9,43.8,18.3,42.9z"/>
<path fill="#429ABD" d="M9.4,42.9c0.4-0.9,2.8-2.1,2.8-2.1s0.8,2.6,0.4,3.4c-0.4,0.9-1.4,1.3-2.3,0.9S9.1,43.8,9.4,42.9z"/>
<path fill="#FEDE07" d="M25.9,3.8c5.5,0,9.9,4.5,9.9,9.9c0,1.8-0.5,3.4-1.3,4.8c3-1.7,5.1-5,5.1-8.7c0-5.5-4.5-9.9-9.9-9.9
	c-3.7,0-7,2.1-8.7,5.1C22.5,4.3,24.2,3.8,25.9,3.8z"/>
<path fill="#BCBCBC" d="M30.9,24.7c0-3.3-2.5-5.9-5.7-6.2c0.1-0.4,0.1-0.7,0.1-1.1c0-3.4-2.8-6.2-6.2-6.2c-2.7,0-4.9,1.7-5.8,4
	c-1.3-0.9-3-1.4-4.7-1.4c-4.7,0-8.6,3.8-8.6,8.6c0,4.7,3.8,8.5,8.4,8.6l18.2,0C29.3,30.2,30.9,27.6,30.9,24.7z"/>
<g>
</g>
<g>
</g>
<g>
</g>
<g>
</g>
<g>
</g>
<g>
</g>
<g>
</g>
<g>
</g>
<g>
</g>
<g>
</g>
<g>
</g>
<g>
</g>
<g>
</g>
<g>
</g>
<g>
</g>
</svg>
