<?xml version="1.0" encoding="utf-8"?>
<!-- Generator: Adobe Illustrator 18.1.0, SVG Export Plug-In . SVG Version: 6.00 Build 0)  -->
<svg version="1.1" id="Layer_1" xmlns="http://www.w3.org/2000/svg" xmlns:xlink="http://www.w3.org/1999/xlink" x="0px" y="0px"
	 viewBox="-280 372 50 50" enable-background="new -280 372 50 50" xml:space="preserve">
<path fill="#FFFFFF" d="M-240.1,385.5h-6.2V378c0-0.8-0.7-1.5-1.5-1.5H-260c-0.4,0-0.7,0.1-1,0.4l-9.9,9.1c-0.3,0.3-0.5,0.7-0.5,1.1
	V407c0,0.8,0.7,1.5,1.5,1.5h6.2v7.5c0,0.8,0.7,1.5,1.5,1.5h22.2c0.8,0,1.5-0.7,1.5-1.5V387C-238.6,386.2-239.3,385.5-240.1,385.5z
	 M-261.2,381.1v5.6h-6.1L-261.2,381.1z M-268.4,405.5v-15.8h8.8c0.8,0,1.5-0.7,1.5-1.5v-8.6h8.9v6h-3.1c-0.4,0-0.7,0.1-1,0.4
	l-9.9,9.1c-0.3,0.3-0.5,0.7-0.5,1.1v9.4L-268.4,405.5L-268.4,405.5z M-253.5,390.1v5.6h-6.1L-253.5,390.1z M-241.6,414.5h-19.2
	v-15.8h8.8c0.8,0,1.5-0.7,1.5-1.5v-8.6h8.9V414.5z"/>
</svg>
