<?xml version="1.0" encoding="utf-8"?>
<!-- Generator: Adobe Illustrator 18.1.1, SVG Export Plug-In . SVG Version: 6.00 Build 0)  -->
<svg version="1.1" id="Layer_1" xmlns="http://www.w3.org/2000/svg" xmlns:xlink="http://www.w3.org/1999/xlink" x="0px" y="0px"
	 viewBox="0 0 25 36" enable-background="new 0 0 25 36" xml:space="preserve">
<path fill="#74D463" d="M25,15.2c0,0.3-0.1,1-1.3,1h-7.8v18.4c0,0.1,0,0.1,0,0.2c0,0.3-0.1,0.6-0.3,0.9c-0.3,0.3-0.7,0.4-1.3,0.4
	h-3.8C9.3,36,9,35.2,9,34.7V16.5H1.6c-1.4,0-1.6-0.7-1.6-1.1c0-0.6,0.6-1.3,0.7-1.4C1.1,13.6,9.8,1.8,11,0.5C11.5,0.1,12,0,12.3,0
	c0.7,0,1.2,0.6,1.3,0.7l10.6,13C24.4,13.9,25,14.5,25,15.2z"/>
</svg>
