<?xml version="1.0" encoding="utf-8"?>
<!-- Generator: Adobe Illustrator 18.1.1, SVG Export Plug-In . SVG Version: 6.00 Build 0)  -->
<svg version="1.1" id="Layer_1" xmlns="http://www.w3.org/2000/svg" xmlns:xlink="http://www.w3.org/1999/xlink" x="0px" y="0px"
	 viewBox="0 0 25 36" enable-background="new 0 0 25 36" xml:space="preserve">
<path fill="#C3043E" d="M0,20.9c0-0.3,0.1-1,1.3-1h7.8V1.5c0-0.1,0-0.1,0-0.2c0-0.3,0.1-0.6,0.3-0.9C9.7,0.1,10.2,0,10.8,0l3.8,0
	C15.7,0,16,0.8,16,1.3v18.2h7.3c1.4,0,1.6,0.7,1.6,1.1c0,0.6-0.6,1.3-0.7,1.4c-0.3,0.4-9,12.2-10.3,13.5C13.5,35.9,13,36,12.7,36
	c-0.7,0-1.2-0.6-1.3-0.7l-10.6-13C0.6,22.1,0,21.5,0,20.9z"/>
</svg>
