<?xml version="1.0" encoding="utf-8"?>
<!-- Generator: Adobe Illustrator 18.1.1, SVG Export Plug-In . SVG Version: 6.00 Build 0)  -->
<svg version="1.1" id="Layer_1" xmlns="http://www.w3.org/2000/svg" xmlns:xlink="http://www.w3.org/1999/xlink" x="0px" y="0px"
	 viewBox="41.3 210.8 331.5 372.5" enable-background="new 41.3 210.8 331.5 372.5" xml:space="preserve">
<g>
	<path fill="#CCCCCC" d="M122.7,397.2H51.3c-5.5,0-10,4.5-10,10v166c0,5.5,4.5,10,10,10h71.5c5.5,0,10-4.5,10-10v-166
		C132.7,401.7,128.3,397.2,122.7,397.2z"/>
	<path fill="#CCCCCC" d="M242.7,210.8h-71.5c-5.5,0-10,4.5-10,10v352.5c0,5.5,4.5,10,10,10h71.5c5.5,0,10-4.5,10-10V220.8
		C252.7,215.2,248.3,210.8,242.7,210.8z"/>
	<path fill="#CCCCCC" d="M362.7,326h-71.5c-5.5,0-10,4.5-10,10v237.2c0,5.5,4.5,10,10,10h71.5c5.5,0,10-4.5,10-10V336
		C372.7,330.5,368.3,326,362.7,326z"/>
</g>
</svg>
