<?xml version="1.0" encoding="utf-8"?>
<!-- Generator: Adobe Illustrator 18.1.1, SVG Export Plug-In . SVG Version: 6.00 Build 0)  -->
<svg version="1.1" id="Layer_1" xmlns="http://www.w3.org/2000/svg" xmlns:xlink="http://www.w3.org/1999/xlink" x="0px" y="0px"
	 viewBox="0 0 40 46.1" enable-background="new 0 0 40 46.1" xml:space="preserve">
<path fill="#EAEAEA" d="M40,17.5c0-4.2-3.3-7.7-7.4-8C32.7,9,32.7,8.5,32.7,8c0-4.4-3.6-8-8-8c-3.4,0-6.4,2.1-7.5,5.2
	c-1.7-1.1-3.8-1.8-6.1-1.8C5,3.4,0,8.3,0,14.4c0,6.1,4.9,11,10.9,11.1l23.6,0.1C37.9,24.6,40,21.2,40,17.5z"/>
<circle fill="#ABC8E2" cx="9.1" cy="31.3" r="1.7"/>
<circle fill="#ABC8E2" cx="16.9" cy="31.3" r="1.7"/>
<circle fill="#ABC8E2" cx="24.8" cy="31.3" r="1.7"/>
<circle fill="#ABC8E2" cx="13.4" cy="37.5" r="1.7"/>
<circle fill="#ABC8E2" cx="32.7" cy="31.3" r="1.7"/>
<circle fill="#ABC8E2" cx="25.7" cy="37.5" r="1.7"/>
<circle fill="#ABC8E2" cx="32.7" cy="39.2" r="1.7"/>
<circle fill="#ABC8E2" cx="20.4" cy="39.2" r="1.7"/>
<circle fill="#ABC8E2" cx="25.7" cy="44.4" r="1.7"/>
<circle fill="#ABC8E2" cx="13.4" cy="44.4" r="1.7"/>
<g>
</g>
<g>
</g>
<g>
</g>
<g>
</g>
<g>
</g>
<g>
</g>
<g>
</g>
<g>
</g>
<g>
</g>
<g>
</g>
<g>
</g>
<g>
</g>
<g>
</g>
<g>
</g>
<g>
</g>
</svg>
