<?xml version="1.0" encoding="utf-8"?>
<!-- Generator: Adobe Illustrator 18.1.1, SVG Export Plug-In . SVG Version: 6.00 Build 0)  -->
<svg version="1.1" id="Layer_1" xmlns="http://www.w3.org/2000/svg" xmlns:xlink="http://www.w3.org/1999/xlink" x="0px" y="0px"
	 viewBox="0 0 40 28.5" enable-background="new 0 0 40 28.5" xml:space="preserve">
<g>
	<path fill="#EAEAEA" d="M0,1.6c0,0,2.4-0.2,6.1-0.4c1.8-0.1,4-0.3,6.3-0.4c2.3-0.1,4.7-0.3,7.2-0.4c1.2-0.1,2.4-0.1,3.6-0.2
		C24.4,0.1,25.6,0,26.7,0c1.1,0,2.3,0,3.3,0.1c1.1,0.1,2,0.2,3,0.3c0.9,0.1,1.8,0.3,2.5,0.4c0.7,0.1,1.3,0.3,1.9,0.4
		C38.5,1.4,39,1.6,39,1.6V2c0,0-0.5,0.2-1.6,0.5c-0.5,0.1-1.2,0.3-1.9,0.4C34.7,3,33.9,3.1,33,3.2c-0.9,0.1-1.9,0.2-3,0.3
		c-1.1,0.1-2.2,0.1-3.3,0.1c-1.1,0-2.3-0.1-3.5-0.2c-1.2-0.1-2.4-0.2-3.6-0.2c-2.4-0.1-4.9-0.2-7.2-0.4c-2.3-0.1-4.4-0.3-6.3-0.4
		C2.4,2.2,0,2,0,2V1.6z"/>
</g>
<g>
	<path fill="#EAEAEA" d="M39,14.4c0,0-2.4,0.2-6,0.4c-1.8,0.1-3.9,0.3-6.2,0.4c-2.3,0.1-4.7,0.3-7.2,0.4c-1.2,0.1-2.4,0.1-3.6,0.2
		C14.7,16,13.5,16,12.4,16c-1.1,0-2.3,0-3.3-0.1c-1.1-0.1-2-0.2-3-0.3c-0.9-0.1-1.8-0.3-2.5-0.4c-0.7-0.1-1.4-0.3-1.9-0.4
		C0.6,14.6,0,14.4,0,14.4V14c0,0,0.6-0.2,1.7-0.5c0.5-0.1,1.2-0.3,1.9-0.4c0.7-0.1,1.6-0.3,2.5-0.4c0.9-0.1,1.9-0.2,3-0.3
		c1.1-0.1,2.2-0.1,3.3-0.1c1.1,0,2.3,0.1,3.5,0.2c1.2,0.1,2.4,0.2,3.6,0.2c2.4,0.1,4.9,0.2,7.2,0.4c2.3,0.1,4.4,0.3,6.2,0.4
		c3.7,0.2,6,0.4,6,0.4V14.4z"/>
</g>
<g>
	<path fill="#EAEAEA" d="M1,7.8c0,0,0.5-0.3,1.6-0.6C3.7,7,5.2,6.7,7,6.5c0.9-0.1,1.9-0.1,2.9,0c1.1,0.1,2.2,0.4,3.3,0.6
		c1.1,0.3,2.3,0.4,3.5,0.4c1.2,0,2.4-0.2,3.6-0.4c1.2-0.2,2.4-0.5,3.6-0.6c1.2-0.1,2.4-0.2,3.5-0.3c2.3-0.2,4.4,0,6.3,0.3
		c0.9,0.1,1.8,0.3,2.5,0.4c0.7,0.1,1.4,0.3,1.9,0.4C39.4,7.6,40,7.8,40,7.8v0.4c0,0-0.6,0.2-1.7,0.5c-0.5,0.1-1.2,0.3-1.9,0.4
		c-0.7,0.2-1.6,0.3-2.5,0.4c-1.8,0.2-4,0.4-6.3,0.3c-1.1-0.1-2.3-0.2-3.5-0.3c-1.2-0.1-2.4-0.4-3.6-0.6c-1.2-0.2-2.4-0.4-3.6-0.4
		c-1.2,0-2.4,0.1-3.5,0.4C12.1,9.2,11,9.5,9.9,9.6c-1.1,0.1-2,0-3,0C5.1,9.4,3.7,9.1,2.6,8.8C1.5,8.5,1,8.2,1,8.2V7.8z"/>
</g>
<g>
	<path fill="#EAEAEA" d="M1,20.2c0,0,2.4-0.2,6-0.4c1.8-0.1,3.9-0.3,6.2-0.4c2.3-0.1,4.7-0.3,7.2-0.4c1.2-0.1,2.4-0.1,3.6-0.2
		c1.2-0.1,2.4-0.2,3.5-0.2c1.1,0,2.3,0,3.3,0.1c1.1,0.1,2,0.2,3,0.3c0.9,0.1,1.8,0.3,2.5,0.4c0.7,0.1,1.4,0.3,1.9,0.4
		c1.1,0.2,1.7,0.5,1.7,0.5v0.4c0,0-0.6,0.2-1.7,0.5c-0.5,0.1-1.2,0.3-1.9,0.4c-0.7,0.1-1.6,0.3-2.5,0.4c-0.9,0.1-1.9,0.2-3,0.3
		c-1.1,0.1-2.2,0.1-3.3,0.1c-1.1,0-2.3-0.1-3.5-0.2c-1.2-0.1-2.4-0.2-3.6-0.2c-2.4-0.1-4.9-0.2-7.2-0.4C11,21.3,8.9,21.2,7,21
		c-3.7-0.2-6-0.4-6-0.4V20.2z"/>
</g>
<g>
	<path fill="#EAEAEA" d="M40,26.8c0,0-0.6,0.3-1.7,0.6c-1.1,0.3-2.6,0.6-4.4,0.7c-0.9,0.1-1.9,0.1-3,0c-1.1-0.1-2.2-0.4-3.3-0.6
		c-1.1-0.3-2.3-0.4-3.5-0.4c-1.2,0-2.4,0.2-3.6,0.4c-1.2,0.2-2.4,0.5-3.6,0.6c-1.2,0.1-2.4,0.2-3.5,0.3c-2.3,0.2-4.4,0-6.3-0.3
		c-0.9-0.1-1.8-0.3-2.5-0.4c-0.7-0.1-1.3-0.3-1.9-0.4C1.5,27,1,26.8,1,26.8v-0.4c0,0,0.5-0.2,1.6-0.5c0.5-0.1,1.2-0.3,1.9-0.4
		C5.3,25.3,6.1,25.2,7,25c1.8-0.2,4-0.4,6.3-0.3c1.1,0.1,2.3,0.2,3.5,0.3c1.2,0.1,2.4,0.4,3.6,0.6c1.2,0.2,2.4,0.4,3.6,0.4
		c1.2,0,2.4-0.1,3.5-0.4c1.1-0.3,2.3-0.5,3.3-0.6c1.1-0.1,2,0,3,0c1.8,0.1,3.4,0.5,4.4,0.7c1.1,0.3,1.7,0.6,1.7,0.6V26.8z"/>
</g>
<g>
</g>
<g>
</g>
<g>
</g>
<g>
</g>
<g>
</g>
<g>
</g>
<g>
</g>
<g>
</g>
<g>
</g>
<g>
</g>
<g>
</g>
<g>
</g>
<g>
</g>
<g>
</g>
<g>
</g>
</svg>
