<?xml version="1.0" encoding="utf-8"?>
<!-- Generator: Adobe Illustrator 18.1.1, SVG Export Plug-In . SVG Version: 6.00 Build 0)  -->
<svg version="1.1" id="Layer_1" xmlns="http://www.w3.org/2000/svg" xmlns:xlink="http://www.w3.org/1999/xlink" x="0px" y="0px"
	 viewBox="0 0 40 47" enable-background="new 0 0 40 47" xml:space="preserve">
<polygon fill="#5267A2" points="8.4,37 5.5,38 5.2,35 9.9,31.1 9.9,31.1 "/>
<polygon fill="#5267A2" points="19.5,35.2 16.6,36.2 16.2,33.1 21,29.2 21,29.2 "/>
<polygon fill="#5267A2" points="30.5,34.1 27.6,35.1 27.3,32.1 32,28.1 32,28.1 "/>
<polygon fill="#5267A2" points="14.1,46 11.2,47 10.9,44 15.6,40.1 15.6,40.1 "/>
<polygon fill="#5267A2" points="25.2,44.1 22.3,45.1 21.9,42.1 26.7,38.2 26.7,38.2 "/>
<path fill="#BCBCBC" d="M40,17.6c0-4.2-3.3-7.7-7.4-8.1c0.1-0.5,0.1-1,0.1-1.4c0-4.4-3.6-8.1-8-8.1c-3.4,0-6.4,2.1-7.5,5.2
	c-1.7-1.1-3.8-1.8-6.1-1.8C5,3.3,0,8.4,0,14.5c0,6.1,4.9,11.2,10.9,11.2h23.2C37.5,24.7,40,21.2,40,17.6z"/>
<g>
</g>
<g>
</g>
<g>
</g>
<g>
</g>
<g>
</g>
<g>
</g>
<g>
</g>
<g>
</g>
<g>
</g>
<g>
</g>
<g>
</g>
<g>
</g>
<g>
</g>
<g>
</g>
<g>
</g>
</svg>
