<?xml version="1.0" encoding="utf-8"?>
<!-- Generator: Adobe Illustrator 18.1.1, SVG Export Plug-In . SVG Version: 6.00 Build 0)  -->
<svg version="1.1" id="Layer_1" xmlns="http://www.w3.org/2000/svg" xmlns:xlink="http://www.w3.org/1999/xlink" x="0px" y="0px"
	 viewBox="0 0 40 36" enable-background="new 0 0 40 36" xml:space="preserve">
<path fill="#FEDE07" d="M26.2,3.8c5.5,0,9.9,4.4,9.9,9.9c0,1.8-0.5,3.4-1.3,4.8c3-1.7,5.1-4.9,5.1-8.7C40,4.4,35.6,0,30.1,0
	c-3.7,0-7,2.1-8.7,5.1C22.8,4.3,24.5,3.8,26.2,3.8z"/>
<path fill="#EAEAEA" d="M37.4,28.4c0-4-3-7.2-6.9-7.5c0.1-0.4,0.1-0.9,0.1-1.3c0-4.2-3.4-7.5-7.5-7.5c-3.2,0-5.9,2-7,4.8
	c-1.6-1.1-3.6-1.7-5.7-1.7C4.6,15.2,0,19.9,0,25.6C0,31.3,4.6,36,10.2,36H32C35.1,35,37.4,31.9,37.4,28.4z"/>
<g>
</g>
<g>
</g>
<g>
</g>
<g>
</g>
<g>
</g>
<g>
</g>
<g>
</g>
<g>
</g>
<g>
</g>
<g>
</g>
<g>
</g>
<g>
</g>
<g>
</g>
<g>
</g>
<g>
</g>
</svg>
