<?xml version="1.0" encoding="utf-8"?>
<!-- Generator: Adobe Illustrator 18.1.1, SVG Export Plug-In . SVG Version: 6.00 Build 0)  -->
<svg version="1.1" id="Layer_1" xmlns="http://www.w3.org/2000/svg" xmlns:xlink="http://www.w3.org/1999/xlink" x="0px" y="0px"
	 viewBox="0 0 40.8 35.1" enable-background="new 0 0 40.8 35.1" xml:space="preserve">
<circle fill="#FEDE07" cx="16.5" cy="15.8" r="9.9"/>
<line fill="none" stroke="#FEDE07" stroke-width="2" stroke-linecap="round" stroke-miterlimit="10" x1="16" y1="5" x2="16" y2="1"/>
<line fill="none" stroke="#FEDE07" stroke-width="2" stroke-linecap="round" stroke-miterlimit="10" x1="16" y1="31" x2="16" y2="28"/>
<line fill="none" stroke="#FEDE07" stroke-width="2" stroke-linecap="round" stroke-miterlimit="10" x1="4" y1="16" x2="1" y2="16"/>
<line fill="none" stroke="#FEDE07" stroke-width="2" stroke-linecap="round" stroke-miterlimit="10" x1="31" y1="16" x2="28" y2="16"/>
<line fill="none" stroke="#FEDE07" stroke-width="2" stroke-linecap="round" stroke-miterlimit="10" x1="8.2" y1="7.8" x2="5.5" y2="5.1"/>
<line fill="none" stroke="#FEDE07" stroke-width="2" stroke-linecap="round" stroke-miterlimit="10" x1="27.4" y1="26.9" x2="24.7" y2="24.2"/>
<line fill="none" stroke="#FEDE07" stroke-width="2" stroke-linecap="round" stroke-miterlimit="10" x1="8.2" y1="24.2" x2="5.5" y2="26.9"/>
<line fill="none" stroke="#FEDE07" stroke-width="2" stroke-linecap="round" stroke-miterlimit="10" x1="27.4" y1="5.1" x2="24.7" y2="7.8"/>
<path fill="#EAEAEA" d="M29.7,25.3l7.4,0c2.2-0.6,3.6-2.9,3.6-5.4c0-2.8-2.2-5.1-4.9-5.3c0.1-0.3,0.1-0.6,0.1-0.9
	c0-3-2.4-5.4-5.3-5.4c-2.3,0-4.2,1.4-5,3.4c-1.2-0.8-2.5-1.2-4-1.2c-4.1,0-7.4,3.3-7.4,7.4c0,0.5,0.1,1,0.1,1.5"/>
<path fill="#C1C1C1" d="M33.5,28.7c0-3.3-2.6-6-5.8-6.3c0.1-0.4,0.1-0.7,0.1-1.1c0-3.5-2.8-6.3-6.3-6.3c-2.7,0-5,1.7-5.9,4
	c-1.4-0.9-3-1.4-4.8-1.4c-4.8,0-8.7,3.9-8.7,8.7c0,4.8,3.8,8.6,8.6,8.7l18.5,0C31.9,34.3,33.5,31.6,33.5,28.7z"/>
<g>
</g>
<g>
</g>
<g>
</g>
<g>
</g>
<g>
</g>
<g>
</g>
<g>
</g>
<g>
</g>
<g>
</g>
<g>
</g>
<g>
</g>
<g>
</g>
<g>
</g>
<g>
</g>
<g>
</g>
</svg>
