<?xml version="1.0" encoding="utf-8"?>
<!-- Generator: Adobe Illustrator 18.1.1, SVG Export Plug-In . SVG Version: 6.00 Build 0)  -->
<svg version="1.1" id="Layer_1" xmlns="http://www.w3.org/2000/svg" xmlns:xlink="http://www.w3.org/1999/xlink" x="0px" y="0px"
	 viewBox="0 0 40 44.2" enable-background="new 0 0 40 44.2" xml:space="preserve">
<g id="Layer_3_1_">
	<g>
		<path fill="#ABC8E2" d="M38.5,16.1l1.5-5.5l-5.5-1.5l-1.1,4.2l-3.8,2.2l0.9-4.7l-1.9-0.4l-1.2,6.3l-2,1.2L24,15.5h-3V13l4.8-4.2
			l-1.2-1.4L21,10.5V7.2l3.1-3.1L20,0l-4.1,4.1L19,7.2v3.4l-3.6-3.1l-1.2,1.4L19,13v2.5h-3l-1.4,2.4l-2-1.2l-1.2-6.3l-1.9,0.4
			l0.9,4.7l-3.8-2.2L5.5,9.1L0,10.5l1.5,5.5l4.2-1.1l3.8,2.2L5,18.7l0.6,1.8l6.1-2.1l2,1.2l-1.6,2.8l1.4,2.4l-1.8,1l-6.1-2.1L5,25.5
			l4.5,1.6l-3.8,2.2l-4.2-1.1L0,33.6l5.5,1.5l1.1-4.2l3.8-2.2l-0.9,4.7l1.9,0.4l1.2-6.3l1.8-1l1.6,2.8h3v1.9l-4.8,4.2l1.2,1.4
			l3.6-3.1V37l-3.1,3.1l4.1,4.1l4.1-4.1L21,37v-3.4l3.6,3.1l1.2-1.4L21,31.2v-1.9h3l1.6-2.8l1.8,1l1.2,6.3l1.9-0.4l-0.9-4.7l3.8,2.2
			l1.1,4.2l5.5-1.5l-1.5-5.5l-4.2,1.1l-3.8-2.2l4.5-1.6l-0.6-1.8l-6.1,2.1l-1.8-1l1.4-2.4l-1.6-2.8l2-1.2l6.1,2.1l0.6-1.8l-4.5-1.6
			l3.8-2.2L38.5,16.1z"/>
	</g>
</g>
<g>
</g>
<g>
</g>
<g>
</g>
<g>
</g>
<g>
</g>
<g>
</g>
<g>
</g>
<g>
</g>
<g>
</g>
<g>
</g>
<g>
</g>
<g>
</g>
<g>
</g>
<g>
</g>
<g>
</g>
</svg>
