<?xml version="1.0" encoding="utf-8"?>
<!-- Generator: Adobe Illustrator 18.1.1, SVG Export Plug-In . SVG Version: 6.00 Build 0)  -->
<svg version="1.1" id="Layer_1" xmlns="http://www.w3.org/2000/svg" xmlns:xlink="http://www.w3.org/1999/xlink" x="0px" y="0px"
	 viewBox="0 0 25.4 36" enable-background="new 0 0 25.4 36" xml:space="preserve">
<path fill="#999999" d="M14.9,29.2h-4.2c-0.7,0-1.3,0.6-1.3,1.3v4.2c0,0.7,0.6,1.3,1.3,1.3h4.2c0.7,0,1.3-0.6,1.3-1.3v-4.2
	C16.2,29.8,15.6,29.2,14.9,29.2z"/>
<path fill="#999999" d="M25.4,10.2c0-2.7-1.2-5.1-3.5-7.2C19.6,1,16.5,0,12.6,0c-3.7,0-6.7,1-9,3C1.6,4.8,0.4,6.8,0,9.1
	c-0.1,0.7,0.4,1.4,1.1,1.5L4.8,11c0.7,0.1,1.4-0.4,1.6-1.1C6.8,9,7.2,8.3,7.7,7.6C8.1,7.1,9,6.3,9.6,6c0.9-0.5,2-0.8,3.3-0.8
	c1.8,0,3.2,0.5,4.3,1.4c1.1,0.9,1.6,2.1,1.6,3.4c0,1-0.3,1.8-0.9,2.6c-0.4,0.5-1.6,1.6-3.6,3.2c-2,1.6-3.3,3.1-4,4.4
	c-0.7,1.3-1,2.9-1,5c0,0.1,0,0.4,0,0.8c0,0.4,0.6,0.8,1.3,0.8h3.6c0.7,0,1.3-0.6,1.3-1.3c0-1.2,0.2-2.1,0.5-2.6
	c0.3-0.7,1.2-1.7,2.7-2.9c2.8-2.3,4.6-4.1,5.5-5.5C25,13.2,25.4,11.7,25.4,10.2"/>
<g>
</g>
<g>
</g>
<g>
</g>
<g>
</g>
<g>
</g>
<g>
</g>
<g>
</g>
<g>
</g>
<g>
</g>
<g>
</g>
<g>
</g>
<g>
</g>
<g>
</g>
<g>
</g>
<g>
</g>
</svg>
