<?xml version="1.0" encoding="utf-8"?>
<!-- Generator: Adobe Illustrator 18.1.1, SVG Export Plug-In . SVG Version: 6.00 Build 0)  -->
<svg version="1.1" id="Layer_1" xmlns="http://www.w3.org/2000/svg" xmlns:xlink="http://www.w3.org/1999/xlink" x="0px" y="0px"
	 viewBox="0 0 117 90" enable-background="new 0 0 117 90" xml:space="preserve">
<g>
	<g>
		<path fill="#333333" d="M105.3,54l-20,5.3c-1,1.7-2,3.4-2.9,5.1l20.5-5.4l8.4,20.9l-25.1,4.9l-1.2-19.7l-2.6,3.3L83,84.7
			l-35.6-8.8l10.7-17l0.4-0.1l7.8,4.9c-1.3-2.1-2.5-4.2-3.8-6.3l-3.6-3l-29.6,6.2L0,90l44.6-10.6l39.6,9.8l0.4,0.1L117,83L105.3,54z
			 M44,75.3l-30.8,7.3l18-18.2l22.5-4.7L44,75.3z M74.7,71.1c2.7-4.9,5.7-9.8,8.4-14.6c0.6-1.3,1.7-2.8,2.3-4c0.4-0.8,1.6-1.7,2-2.5
			c4.6-8.3,11.7-16.6,11.7-24.6v-3.2c0-1.3-1.2-4.2-1.2-4.5c-0.2-0.8-0.9-1.9-1.1-2.8C92.2,4,82.2,0,74.4,0
			C63.9,0,51.9,7.2,50.3,22.1v4.7C51.4,34,57,41.4,61,48.6C65.6,56.2,70.1,63.7,74.7,71.1z M66.4,24.6v-1.9c0-5.7,4.8-8.1,8.8-8.1
			c5,0,8.8,4,8.8,9.1c-0.2,4.9-4.4,8.9-9.3,8.9c-3.2,0-6.5-1.5-8.2-5.9C66.4,26.1,66.4,24.6,66.4,24.6z"/>
	</g>
</g>
<g>
</g>
<g>
</g>
<g>
</g>
<g>
</g>
<g>
</g>
<g>
</g>
<g>
</g>
<g>
</g>
<g>
</g>
<g>
</g>
<g>
</g>
<g>
</g>
<g>
</g>
<g>
</g>
<g>
</g>
</svg>
