<?xml version="1.0" encoding="utf-8"?>
<!-- Generator: Adobe Illustrator 18.1.1, SVG Export Plug-In . SVG Version: 6.00 Build 0)  -->
<svg version="1.1" id="Layer_1" xmlns="http://www.w3.org/2000/svg" xmlns:xlink="http://www.w3.org/1999/xlink" x="0px" y="0px"
	 viewBox="0 0 40 29.6" enable-background="new 0 0 40 29.6" xml:space="preserve">
<g>
	<path fill="#EAEAEA" d="M26.7,5.9C26.7,2.7,24,0,20.7,0s-5.9,2.7-5.9,5.9h3c0-1.6,1.3-3,3-3s3,1.3,3,3s-1.3,3-3,3H3v3h17.8
		C24,11.9,26.7,9.2,26.7,5.9z"/>
	<path fill="#EAEAEA" d="M34.1,5.9c-3.3,0-5.9,2.7-5.9,5.9h3c0-1.6,1.3-3,3-3c1.6,0,3,1.3,3,3s-1.3,3-3,3H0v3h34.1
		c3.3,0,5.9-2.7,5.9-5.9S37.3,5.9,34.1,5.9z"/>
	<path fill="#EAEAEA" d="M29.6,20.7H8.9v3h20.7c0.9,0,1.5,0.6,1.5,1.5c0,0.9-0.6,1.5-1.5,1.5c-0.9,0-1.5-0.6-1.5-1.5h-3
		c0,2.4,1.9,4.4,4.4,4.4s4.4-1.9,4.4-4.4S32.1,20.7,29.6,20.7z"/>
</g>
<g>
</g>
<g>
</g>
<g>
</g>
<g>
</g>
<g>
</g>
<g>
</g>
<g>
</g>
<g>
</g>
<g>
</g>
<g>
</g>
<g>
</g>
<g>
</g>
<g>
</g>
<g>
</g>
<g>
</g>
</svg>
