<?xml version="1.0" encoding="UTF-8" standalone="no"?>
<svg width="15px" height="12px" viewBox="0 0 15 12" version="1.1" xmlns="http://www.w3.org/2000/svg" xmlns:xlink="http://www.w3.org/1999/xlink" xmlns:sketch="http://www.bohemiancoding.com/sketch/ns">
    <!-- Generator: Sketch 3.3.3 (12072) - http://www.bohemiancoding.com/sketch -->
    <title>Shape</title>
    <desc>Created with Sketch.</desc>
    <defs></defs>
    <g id="Extension" stroke="none" stroke-width="1" fill="none" fill-rule="evenodd" sketch:type="MSPage">
        <g id="News-EZ" sketch:type="MSArtboardGroup" transform="translate(-241.000000, -119.000000)" fill="#49C0F2">
            <g id="News-1-copy" sketch:type="MSLayerGroup" transform="translate(140.000000, 91.000000)">
                <g id="EZ-social-twitter" transform="translate(101.000000, 28.000000)" sketch:type="MSShapeGroup">
                    <path d="M9.8,0 L10.28,0 L10.32,0 C11.04,0.08 11.64,0.36 12.16,0.88 C12.2,0.92 12.24,0.92 12.28,0.92 C12.88,0.8 13.48,0.56 14,0.24 C14.04,0.24 14.04,0.2 14.08,0.2 C13.84,0.92 13.44,1.44 12.8,1.84 C13.2,1.8 13.6,1.68 14,1.56 C14.16,1.52 14.32,1.44 14.44,1.4 L14.44,1.4 C14.44,1.4 14.44,1.4 14.4,1.44 C14,2 13.56,2.52 13,2.92 C12.96,2.96 12.96,2.96 12.96,3 L12.96,3.64 C12.92,4.4 12.8,5.16 12.56,5.92 C12.08,7.4 11.32,8.68 10.2,9.76 C8.76,11.12 7.08,11.8 5.16,11.96 C5.08,11.96 5,11.96 4.92,12 L4.16,12 L4.12,12 C3.96,12 3.84,12 3.68,11.96 C3.44,11.92 3.16,11.92 2.92,11.84 C2.48,11.76 2.04,11.64 1.64,11.48 C1.08,11.28 0.52,11 0.04,10.68 C-7.37188088e-14,10.68 -7.37188088e-14,10.64 -7.37188088e-14,10.64 C0.76,10.72 1.56,10.68 2.28,10.44 C2.96,10.24 4.2,9.6 4.32,9.36 C3.92,9.32 3.68,9.28 3.4,9.2 C2.52,8.88 1.92,8.24 1.6,7.36 C1.72,7.28 1.72,7.28 1.8,7.28 C1.92,7.32 2.04,7.32 2.16,7.32 C2.44,7.32 2.68,7.32 2.92,7.24 C2.96,7.24 3,7.24 3,7.2 C1.4,6.84 0.6,5.36 0.68,4.2 C0.88,4.32 1.08,4.4 1.32,4.48 C1.52,4.56 1.76,4.6 2,4.6 C2,4.56 1.96,4.56 1.96,4.56 C1.72,4.36 1.48,4.16 1.32,3.92 C0.92,3.4 0.76,2.8 0.72,2.12 C0.72,1.96 0.72,1.8 0.76,1.64 C0.8,1.24 0.92,0.92 1.08,0.6 C1.12,0.56 1.12,0.56 1.16,0.6 C1.36,0.84 1.6,1.12 1.84,1.32 C2.4,1.92 3.04,2.4 3.76,2.76 C4.28,3.04 4.8,3.24 5.36,3.4 C5.64,3.48 5.88,3.56 6.12,3.6 C6.28,3.64 6.48,3.64 6.64,3.68 C6.8,3.72 6.96,3.72 7.12,3.72 C7.16,3.72 7.16,3.72 7.16,3.68 C7.12,3.44 7.08,3.2 7.08,2.92 C7.08,2.8 7.08,2.68 7.12,2.56 C7.16,2.24 7.24,1.96 7.4,1.68 C7.56,1.32 7.84,1 8.12,0.72 C8.32,0.56 8.52,0.4 8.72,0.32 C8.96,0.2 9.2,0.12 9.48,0.08 C9.6,0.04 9.72,0.04 9.8,0 L9.8,0 Z" id="Shape"></path>
                </g>
            </g>
        </g>
    </g>
</svg>