<?xml version="1.0" encoding="UTF-8" standalone="no"?>
<svg width="18px" height="16px" viewBox="0 0 18 16" version="1.1" xmlns="http://www.w3.org/2000/svg" xmlns:xlink="http://www.w3.org/1999/xlink" xmlns:sketch="http://www.bohemiancoding.com/sketch/ns">
    <!-- Generator: Sketch 3.3.3 (12072) - http://www.bohemiancoding.com/sketch -->
    <title>Shape Copy 5</title>
    <desc>Created with Sketch.</desc>
    <defs></defs>
    <g id="level-badges/notifier" stroke="none" stroke-width="1" fill="none" fill-rule="evenodd" sketch:type="MSPage">
        <g id="browser-icons" sketch:type="MSArtboardGroup" transform="translate(-143.000000, -73.000000)" fill="#F9204C">
            <path d="M157.62497,75.2857241 L157.62497,73 L146.374996,73 L146.374996,75.2857241 L143,75.2857241 L143,76.428569 L143,77.5714139 C143,79.4649782 144.510986,80.9999829 146.374996,80.9999829 C146.727885,80.9999829 147.068085,80.9448858 147.387832,80.8428173 C148.199485,82.021525 149.437568,82.8748958 150.874979,83.1713299 L150.874979,86.7142759 L149.749992,86.7142759 C148.507318,86.7142759 147.499983,87.7376352 147.499983,89 L156.499983,89 C156.499983,87.7376352 155.492648,86.7142759 154.250008,86.7142759 L153.124987,86.7142759 L153.124987,83.1713299 C154.562398,82.8748958 155.800448,82.0215593 156.612134,80.8428173 C156.931915,80.9448858 157.272081,80.9999829 157.625004,80.9999829 C159.489014,80.9999829 161,79.464944 161,77.5714139 L161,76.428569 L161,75.2857241 L157.62497,75.2857241 L157.62497,75.2857241 Z M146.374996,79.6428524 C145.250683,79.6428524 144.335925,78.7135731 144.335925,77.5714139 L144.335925,76.428569 L146.374996,76.428569 L146.374996,77.5714139 C146.374996,78.2890134 146.505608,78.97555 146.743343,79.608361 C146.623767,79.6306124 146.500782,79.6428524 146.374996,79.6428524 L146.374996,79.6428524 Z M159.664042,77.5714482 C159.664042,78.7136073 158.749317,79.6428867 157.625004,79.6428867 C157.499184,79.6428867 157.376233,79.6306467 157.256691,79.6083953 C157.494392,78.9755843 157.625004,78.2890819 157.625004,77.5714482 L157.625004,76.4286033 L159.664042,76.4286033 L159.664042,77.5714482 L159.664042,77.5714482 Z" id="Shape-Copy-5" sketch:type="MSShapeGroup"></path>
        </g>
    </g>
</svg>