<?xml version="1.0" encoding="UTF-8" standalone="no"?>
<svg width="18px" height="16px" viewBox="0 0 18 16" version="1.1" xmlns="http://www.w3.org/2000/svg" xmlns:xlink="http://www.w3.org/1999/xlink" xmlns:sketch="http://www.bohemiancoding.com/sketch/ns">
    <!-- Generator: Sketch 3.3.3 (12072) - http://www.bohemiancoding.com/sketch -->
    <title>Shape Copy 2</title>
    <desc>Created with Sketch.</desc>
    <defs></defs>
    <g id="level-badges/notifier" stroke="none" stroke-width="1" fill="none" fill-rule="evenodd" sketch:type="MSPage">
        <g id="browser-icons" sketch:type="MSArtboardGroup" transform="translate(-233.000000, -37.000000)" fill="#733090">
            <g id="member" sketch:type="MSLayerGroup" transform="translate(143.000000, 37.000000)">
                <path d="M104.564885,2.22608696 L104.564885,0 L93.4351145,0 L93.4351145,2.22608696 L90,2.22608696 L90,3.4226087 L90,4.56347826 C90,6.45565217 91.5251908,7.98608696 93.3801527,7.98608696 C93.7374046,7.98608696 94.0534351,7.93043478 94.3694656,7.83304348 C95.1801527,9.01565217 96.4580153,9.86434783 97.8320611,10.1565217 L97.8320611,13.6347826 L96.7603053,13.6347826 C95.5236641,13.6347826 94.5206107,14.7478261 94.5206107,16 L103.49313,16 C103.49313,14.7478261 102.490076,13.6347826 101.253435,13.6347826 L100.167939,13.6347826 L100.167939,10.1565217 C101.541985,9.86434783 102.819847,9.00173913 103.616794,7.83304348 C103.932824,7.93043478 104.276336,7.98608696 104.633588,7.98608696 C106.48855,7.98608696 108,6.45565217 108,4.56347826 L108,3.4226087 L108,2.22608696 L104.564885,2.22608696 L104.564885,2.22608696 Z M93.3938931,7.16985507 C92.2671756,7.16985507 91.3740458,6.23768116 91.3740458,5.09681159 L91.3740458,4.0115942 L93.4351145,4.0115942 L93.4351145,5.09681159 C93.4351145,5.82028986 93.5450382,6.50202899 93.778626,7.12811594 C93.6687023,7.15594203 93.5175573,7.16985507 93.3938931,7.16985507 L93.3938931,7.16985507 Z M95.0015267,6.54299517 C94.3969466,4.51400966 94.5755725,1.64637681 94.5755725,1.64637681 L95.8534351,1.64637681 C95.8534351,1.64637681 95.7160305,3.44541063 95.8534351,5.39323671 C95.9908397,7.3410628 96.7740458,9.11304348 96.7740458,9.11304348 C96.7740458,9.11304348 95.5923664,8.57198068 95.0015267,6.54299517 L95.0015267,6.54299517 Z M106.625954,5.09681159 C106.625954,6.23768116 105.719084,7.16985507 104.606107,7.16985507 C104.482443,7.16985507 104.345038,7.15594203 104.221374,7.14202899 C104.454962,6.51594203 104.564885,5.82028986 104.564885,5.11072464 L104.564885,4.0115942 L106.625954,4.0115942 L106.625954,5.09681159 L106.625954,5.09681159 Z" id="Shape-Copy-2" sketch:type="MSShapeGroup"></path>
            </g>
        </g>
    </g>
</svg>