<?xml version="1.0" encoding="utf-8"?>
<!-- Generator: Adobe Illustrator 18.1.1, SVG Export Plug-In . SVG Version: 6.00 Build 0)  -->
<svg version="1.1" id="Layer_1" xmlns="http://www.w3.org/2000/svg" xmlns:xlink="http://www.w3.org/1999/xlink" x="0px" y="0px"
	 viewBox="0 0 121 121.5" enable-background="new 0 0 121 121.5" xml:space="preserve">
<g>
	<g>
		<path fill="#FFFFFF" d="M49,49.9c-0.7,0-1.1,0.4-1.1,1.1c0,0.7,0.4,1,1.1,1s1.1-0.3,1.1-1C50.1,50.2,49.7,49.9,49,49.9z
			 M46.1,119.1L46.1,119.1c-0.5-0.2-1-0.3-1.5-0.5C45.1,118.8,45.6,118.9,46.1,119.1z M70.4,67.7c0.2,0,0.5,0,0.7,0
			c0.2,0,0.6,0.1,1,0.1c0.4,0,0.8,0.1,1.1,0.1c0.7,0,1.8,0.1,3.2,0.3c1.4,0.2,2.5,0.3,3.1,0.3c2.6,0,7.9-1.5,15.8-4.5
			c8-3,12-5.3,12-7c0-1-0.8-1.7-2.3-2.1c-1.5-0.4-3-0.6-4.3-0.6c-1.2,0-2.9,0.3-5.2,0.9c-2.3,0.6-4.9,1.4-7.6,2.2
			c-2.7,0.9-4.6,1.4-5.5,1.7c0.3-1.6,0.5-3,0.5-3.9c0-3.9-1-8.4-3.1-13.5c-2.1-5.1-4.5-8.9-7.2-11.4c-2.2-2-5.2-3.3-9-4.1
			c-2.3-3-6-5.6-10.9-8.1s-9.3-3.6-13.2-3.6c-0.7,0-1.9,0.1-3.4,0.4c-1.5,0.3-2.5,0.5-2.9,0.6l-2.7,3.8l0.7,0.1
			c0.6,0,1.5-0.1,2.7-0.2c1.2-0.2,2.1-0.2,2.7-0.2c2.8,0,6.1,0.6,9.7,1.7C44,21.8,42,22.6,40.2,23c-0.2,0.1-0.7,0.2-1.6,0.3
			c-0.9,0.1-1.7,0.2-2.3,0.4c-0.6,0.1-1.2,0.4-1.7,0.7c-0.5,0.4-0.8,0.8-0.8,1.4c4.7-0.5,8.2-0.7,10.5-0.7c3.2,0,5.7,0.3,7.5,0.9
			c-6.4,0.7-11.3,2.9-14.8,6.5c-3.5,3.6-5.2,8.6-5.2,14.9c0,2.2,0.2,4.3,0.5,6.2c1.6,9.9,4.6,24.6,9.1,44.1
			c2.7,12.6,4.3,19.6,4.6,20.9l0.1,0.5c6.1,1.9,12.5,2.8,19.1,2.3c4.8-0.7,9.6-1.8,14.4-3.4c0,0-0.1,0-0.1,0
			c-0.7-1.4-2.1-3.5-4.2-6.4c-2-2.9-3.5-5.2-4.3-6.9c5.3,2.1,8.9,3.2,10.7,3.2c1.3,0,2-2.1,2-6.2c0-7.6-0.7-11.5-2.1-11.5
			c-2.1,0-6.1,2.3-12.1,6.8c0-1.1-0.6-1.6-1.9-1.5h-0.6c-2.2-5.7-3.2-10.7-3.2-15.1c0-1.2,0.1-2.5,0.4-3.7
			c7.7,3.7,13.8,5.5,18.5,5.5c2.6,0,6.5-0.7,11.7-2.2c5.2-1.5,7.8-3.1,7.8-4.8c0-1.1-0.7-1.6-2.1-1.6c-2.2,0-5.3,0.3-9.4,0.9
			c-4.1,0.6-7.2,0.9-9.4,0.9c-2.2,0-4.7-0.6-7.4-1.7c-2.7-1.1-4.1-2.7-4.1-4.7c0-0.4,0.1-0.7,0.2-0.9C70,67.8,70.2,67.7,70.4,67.7z
			 M39.1,44.6c-0.2-0.5-0.4-1-0.4-1.5c0-1.4,0.6-2.5,1.9-3.3c1.3-0.8,2.6-1.2,4.1-1.2c1.6,0,2.8,0.5,3.6,1.6c-1-0.4-1.8-0.6-2.5-0.6
			c-1.4,0-2.9,0.5-4.5,1.5C39.8,42.1,39,43.2,39.1,44.6z M50,55.2c-0.9,0.9-1.9,1.3-2.9,1.3c-1.1,0-2.1-0.4-2.9-1.3
			c-0.9-0.9-1.3-1.8-1.3-2.9s0.4-2,1.3-2.9c0.9-0.9,1.9-1.3,2.9-1.3c1.1,0,2.1,0.4,2.9,1.3c0.9,0.9,1.3,1.8,1.3,2.9
			S50.9,54.4,50,55.2z M78.9,49.9c0,0.9-0.4,1.7-1.1,2.5c-0.7,0.7-1.6,1.1-2.6,1.1c-0.9,0-1.7-0.4-2.5-1.1c-0.7-0.7-1.1-1.6-1.1-2.5
			c0-1,0.4-1.8,1.1-2.5c0.7-0.7,1.6-1,2.5-1c1,0,1.9,0.3,2.6,1C78.6,48,78.9,48.9,78.9,49.9z M68.8,40.3c0.3-2.1,1.8-3.1,4.4-3.1
			c2.1,0,3.5,0.9,4.4,2.7c-1.7-0.8-3-1.2-4.1-1.2C71,38.7,69.5,39.2,68.8,40.3z M76.9,49.6c0.7,0,1-0.3,1-1c0-0.6-0.3-0.9-1-0.9
			c-0.6,0-0.9,0.3-0.9,0.9C76,49.3,76.3,49.6,76.9,49.6z"/>
	</g>
</g>
<g id="Layer_2">
	<path fill="#FFFFFF" d="M60.5,0C27.1,0,0,27.1,0,60.5C0,93.9,27.1,121,60.5,121c33.4,0,60.5-27.1,60.5-60.5C121,27.1,93.9,0,60.5,0
		z M60.5,120C27.7,120,1,93.3,1,60.5S27.7,1,60.5,1S120,27.7,120,60.5S93.3,120,60.5,120z"/>
</g>
</svg>
