<?xml version="1.0" encoding="utf-8"?>
<!-- Generator: Adobe Illustrator 18.1.1, SVG Export Plug-In . SVG Version: 6.00 Build 0)  -->
<svg version="1.1" id="Layer_1" xmlns="http://www.w3.org/2000/svg" xmlns:xlink="http://www.w3.org/1999/xlink" x="0px" y="0px"
	 viewBox="-255.5 371.6 33.1 50.7" enable-background="new -255.5 371.6 33.1 50.7" xml:space="preserve">
<g id="Blue">
</g>
<path fill="#FFFFFF" d="M-237.9,401.4c-1.7-2-2.5-4.1-1.2-6.7c-1,0-2,0-2.9,0c-5.2-0.2-9.2-3.7-10-8.8c-0.6-3.7,0.6-7,3.2-9.7
	c2.4-2.5,5.3-3.8,8.7-4.2c1.9-0.2,3.9-0.3,5.9-0.4c3.7-0.1,7.3,0,11,0c0.3,0,0.5,0,0.8,0c0,0,0,0.1,0,0.1c-0.1,0.1-0.2,0.2-0.3,0.3
	c-0.1,0.1-0.2,0.1-0.2,0.1c-2.2,1.4-4.5,2.6-7.3,1.8c0,0.1,0,0.2,0,0.3c0.2,0.2,0.4,0.4,0.7,0.6c3.3,3.1,4.5,6.9,3.3,11.3
	c-0.5,2-1.8,3.5-3.3,4.8c-0.9,0.8-1.9,1.7-2.8,2.5c-1.2,1.1-1.3,3.3,0.1,4.5c1.7,1.3,3.3,2.7,4.9,4.1c1.6,1.4,2.9,3,3.3,5.1
	c1,4.2-0.3,7.7-3.4,10.6c-2.4,2.2-5.3,3.5-8.5,4.1c-4.4,0.8-8.7,0.8-12.9-0.8c-1.7-0.6-3.3-1.5-4.5-2.9c-3.7-4-2.1-9.2,0.7-11.9
	c2.3-2.2,5.1-3.3,8.2-3.9C-242.4,402-240.2,401.8-237.9,401.4z M-237.9,419.4c1.8,0.1,3.7-0.2,5.5-1c4.4-2,5.3-7.2,2.3-10.3
	c-1.1-1.2-2.5-2.1-3.7-3.2c-1.2-1.2-2.7-1.5-4.3-1.3c-0.4,0.1-0.8,0.1-1.2,0.1c-2.2,0.2-4.4,0.7-6.4,1.7c-3.1,1.6-4.6,4.7-3.6,7.9
	c0.6,2.2,2.2,3.7,4.3,4.7C-242.8,419.1-240.5,419.4-237.9,419.4z M-231.9,386c-0.1-1-0.2-1.9-0.4-2.9c-0.6-3-1.8-5.6-4.1-7.7
	c-3.3-2.9-8.7-1.2-9.6,3.2c-0.3,1.4-0.3,2.8-0.1,4.2c0.3,2.7,1.2,5.2,3,7.4c3,3.7,7.3,3,9.6,0.6C-232.1,389.4-232,387.7-231.9,386z"
	/>
</svg>
