<?xml version="1.0" encoding="utf-8"?>
<!-- Generator: Adobe Illustrator 18.1.1, SVG Export Plug-In . SVG Version: 6.00 Build 0)  -->
<svg version="1.1" id="Layer_1" xmlns="http://www.w3.org/2000/svg" xmlns:xlink="http://www.w3.org/1999/xlink" x="0px" y="0px"
	 viewBox="85.3 176 450.5 243.5" enable-background="new 85.3 176 450.5 243.5" xml:space="preserve">
<g id="google" xmlns:svg="http://www.w3.org/2000/svg" xmlns:rdf="http://www.w3.org/1999/02/22-rdf-syntax-ns#">
	<g>
		<path fill="#FFFFFF" d="M154.9,251h19.4v27.2c-6,1.9-13.7,3-21.6,3c-32.1,0-51-27.5-51-54.4c0-26.4,17.1-44.9,40.9-44.9
			c15.1,0,23.9,5.1,31.7,12.2v8.9l14.7-14.7c-9.3-6.3-22.8-12.3-42.1-12.3c-42.4,0-61.6,30.3-61.6,55.2c0,35.4,25.8,56.8,58.2,56.8
			c15.7,0,29.7-2.4,45.8-6.9V253c0-1.4,0.6-2.4,1.5-3.3l5.1-5.1h-34.6L154.9,251z"/>
		<path fill="#FFFFFF" d="M241.7,214L241.7,214c-24.4,0-39.5,17.8-39.5,36.7c0,16.3,12.2,35.7,36.8,35.7c23.7,0,38.3-17.9,38.3-37
			C277.3,231.4,263.1,214,241.7,214z M242.6,281.7c-8.1,0-13.8-4.9-18.1-11.4c-3.8-6-7.4-17-7.4-27.8s3.5-16,9.1-19.9
			c4.5-2.9,8.8-3.4,11.6-3.4l0,0c17.2,0,24.8,22.4,24.8,38.3C262.5,281.2,244.7,281.7,242.6,281.7z"/>
		<path fill="#FFFFFF" d="M415.1,276.1c-3.8-2.9-4.5-4.8-4.5-7c0-3.2,1.9-5.2,2.5-6c1.2-1.3,3.3-2.7,4.1-3.4
			c4.3-3.6,10.3-9,10.3-19.7c0-7.4-3-13.7-10.1-19.6h8.5l6.4-6.4H401l0,0c-21.3,0-32.8,13.5-32.8,28.5c0,11.4,8.2,24.4,25.1,24.4
			h4.3c0,0-1.2,2.8-1.2,5.6c0,4,1.4,6.3,4.5,9.8c-29.1,1.8-40.8,13.5-40.8,26.2c0,11.1,10.6,21.9,32.8,21.9c26.3,0,40-14.6,40-29
			C432.9,291.2,427.9,285.7,415.1,276.1z M400.8,262.4c-2.5,0-5.5-0.7-8.1-2.4c-5.6-3.6-11.3-13.4-11.3-25.1
			c0-10.5,6.2-16.1,13.7-16.1c3.9,0,7.1,1.4,10.5,4.2c3.8,3.4,9.8,12.6,9.8,23.9C415.4,259.1,405.9,262.4,400.8,262.4z M400.5,323.6
			c-15.2,0-26.8-7.1-26.8-18.6c0-9.6,8-17.8,29.8-18.1l0,0c1.6,0,2.8,0.1,2.8,0.1s3.8,2.7,6.5,4.8c6.2,4.9,10.1,8.7,10.1,15.4
			C422.9,316.4,414.4,323.6,400.5,323.6z"/>
		<path fill="#FFFFFF" d="M458.8,274.6v-88.2c0-1.7,0.8-2.7,1.4-3.2l5.3-5.3h-24.9l-6.5,6.5h9.7v91.4c0,1.3-0.4,2.2-1.3,3.1
			l-5.4,5.3h29.2l4.4-4.4l-8.4-1.1C460.1,278.5,458.8,276.5,458.8,274.6z"/>
		<path fill="#FFFFFF" d="M517.3,278.6c-13.1,0-25.7-9.5-30.1-26.8l46.2-18.7c-2.7-9.5-10.2-19.1-27.5-19.1l0,0
			c-16.3,0-33.6,12.4-33.6,34.7c0,18.4,12.4,37.6,35.7,37.6c5.8,0,10.6-0.7,15-2.8c4.8-2.2,9.4-5.8,12.8-10.3
			C529.4,276.5,524.2,278.6,517.3,278.6z M485.4,239.7c0-16.2,11.7-20.6,17.5-20.6l0,0c8.7,0,15.1,7.2,15.1,12.8
			c0,1.8-1.2,2.8-3.4,3.6l-28.4,11.5C486.2,247.1,485.4,243.5,485.4,239.7z"/>
		<path fill="#FFFFFF" d="M324.4,214L324.4,214c-24.4,0-39.5,17.8-39.5,36.7c0,16.3,12.2,35.7,36.8,35.7c23.7,0,38.3-17.9,38.3-37
			C360,231.4,345.8,214,324.4,214z M325.2,281.7c-8.1,0-13.8-4.9-18.1-11.4c-3.8-6-7.4-17-7.4-27.8s3.5-16,9.1-19.9
			c4.5-2.9,8.8-3.4,11.6-3.4l0,0c17.2,0,24.8,22.4,24.8,38.3C345.2,281.2,327.4,281.7,325.2,281.7z"/>
	</g>
</g>
<g id="images" display="none">
	<g display="inline">
		<path fill="#FFFFFF" d="M171.3,336.6h8.7v63.4h-8.7V336.6z"/>
		<path fill="#FFFFFF" d="M192.9,353.8h7.7v6.6c1.8-2.3,3.5-3.9,5-5c2.5-1.8,5.5-2.7,8.7-2.7c3.7,0,6.6,0.9,8.9,2.7
			c1.3,1.1,2.4,2.5,3.4,4.6c1.7-2.5,3.8-4.3,6.1-5.5c2.3-1.2,4.9-1.8,7.9-1.8c6.2,0,10.4,2.3,12.7,6.7c1.2,2.4,1.8,5.7,1.8,9.7v30.7
			h-8.1v-32.1c0-3.1-0.8-5.2-2.3-6.4c-1.5-1.2-3.4-1.7-5.6-1.7c-3,0-5.7,1-7.9,3c-2.2,2-3.3,5.5-3.3,10.2v26.9H220v-30.2
			c0-3.2-0.4-5.4-1.1-6.9c-1.2-2.2-3.4-3.3-6.6-3.3c-2.9,0-5.6,1.2-8,3.4c-2.4,2.3-3.6,6.4-3.6,12.3v24.5H193L192.9,353.8
			L192.9,353.8z"/>
		<path fill="#FFFFFF" d="M291.3,372c1.8-0.2,3-1,3.6-2.3c0.3-0.7,0.5-1.7,0.5-3c0-2.7-0.9-4.6-2.8-5.8c-1.9-1.2-4.6-1.8-8.1-1.8
			c-4,0-6.9,1.1-8.6,3.3c-0.9,1.2-1.5,3-1.8,5.4h-7.2c0.2-5.7,2-9.7,5.5-11.9c3.5-2.2,7.7-3.4,12.3-3.4c5.4,0,9.8,1.1,13.2,3.1
			c3.4,2,5,5.3,5,9.7V392c0,0.8,0.2,1.4,0.5,1.9c0.3,0.5,1.1,0.7,2.1,0.7c0.3,0,0.7,0,1.2-0.1s0.9-0.1,1.4-0.2v5.8
			c-1.2,0.3-2.2,0.6-2.8,0.7c-0.6,0.1-1.5,0.1-2.6,0.1c-2.7,0-4.6-0.9-5.8-2.8c-0.6-1-1.1-2.4-1.3-4.3c-1.6,2-3.9,3.9-6.8,5.4
			c-3,1.5-6.2,2.3-9.8,2.3c-4.3,0-7.8-1.3-10.5-3.9c-2.7-2.6-4.1-5.9-4.1-9.8c0-4.3,1.3-7.6,4-10c2.7-2.4,6.2-3.8,10.5-4.4
			L291.3,372z M274.9,393c1.7,1.3,3.6,1.9,5.8,1.9c2.7,0,5.4-0.6,8-1.9c4.3-2.1,6.5-5.5,6.5-10.3v-6.2c-0.9,0.6-2.2,1.1-3.6,1.5
			c-1.5,0.4-2.9,0.7-4.4,0.9l-4.7,0.6c-2.8,0.4-4.9,0.9-6.4,1.8c-2.4,1.3-3.6,3.5-3.6,6.5C272.5,389.9,273.3,391.7,274.9,393z"/>
		<path fill="#FFFFFF" d="M341.4,355.6c1.4,1,2.9,2.5,4.5,4.4v-5.9h7.2v42c0,5.9-0.9,10.5-2.6,13.9c-3.2,6.2-9.3,9.4-18.2,9.4
			c-5,0-9.1-1.1-12.5-3.3s-5.3-5.7-5.7-10.4h7.9c0.4,2,1.1,3.6,2.2,4.8c1.8,1.7,4.5,2.6,8.2,2.6c5.9,0,9.8-2.1,11.6-6.3
			c1.1-2.5,1.6-6.9,1.5-13.3c-1.5,2.4-3.4,4.1-5.6,5.3s-5,1.7-8.6,1.7c-5,0-9.3-1.8-13.1-5.3c-3.8-3.5-5.6-9.5-5.6-17.6
			c0-7.7,1.9-13.8,5.6-18.1s8.3-6.5,13.7-6.5C335.5,352.9,338.7,353.8,341.4,355.6z M342.3,363.9c-2.3-2.8-5.4-4.1-9-4.1
			c-5.4,0-9.2,2.5-11.2,7.7c-1.1,2.7-1.6,6.3-1.6,10.7c0,5.2,1.1,9.2,3.2,11.9c2.1,2.7,4.9,4.1,8.5,4.1c5.5,0,9.5-2.5,11.7-7.6
			c1.3-2.9,1.9-6.2,1.9-10C345.8,371,344.6,366.7,342.3,363.9z"/>
		<path fill="#FFFFFF" d="M393.4,355c3,1.5,5.4,3.5,7,6c1.5,2.3,2.6,5,3.1,8.2c0.4,2.2,0.7,5.5,0.7,10.2h-33.6
			c0.2,4.7,1.2,8.5,3.3,11.3c2,2.8,5.3,4.3,9.6,4.3c4,0,7.2-1.3,9.6-4c1.3-1.5,2.3-3.4,2.9-5.4h7.6c-0.2,1.7-0.9,3.6-2,5.7
			c-1.2,2.1-2.4,3.8-3.8,5.1c-2.3,2.3-5.3,3.9-8.7,4.6c-1.9,0.4-4,0.7-6.3,0.7c-5.7,0-10.6-2.1-14.5-6.3c-4-4.2-6-10.1-6-17.6
			c0-7.4,2-13.4,6-18.1c4-4.6,9.2-7,15.7-7C387.2,352.7,390.3,353.5,393.4,355z M396.1,373.2c-0.3-3.4-1.1-6.1-2.2-8.1
			c-2.1-3.8-5.6-5.6-10.6-5.6c-3.5,0-6.5,1.3-8.9,3.9s-3.6,5.9-3.8,9.8L396.1,373.2L396.1,373.2z"/>
		<path fill="#FFFFFF" d="M418.6,385.5c0.2,2.6,0.9,4.6,2,6c2,2.5,5.5,3.8,10.4,3.8c2.9,0,5.5-0.6,7.7-1.9c2.2-1.3,3.4-3.2,3.4-5.8
			c0-2-0.9-3.5-2.7-4.5c-1.2-0.6-3.4-1.4-6.7-2.2l-6.2-1.5c-4-1-7-2-8.8-3.3c-3.4-2.1-5.1-5-5.1-8.7c0-4.4,1.6-7.9,4.8-10.6
			s7.5-4,12.9-4c7.1,0,12.2,2,15.3,6.1c1.9,2.6,2.9,5.4,2.8,8.3h-7.4c-0.2-1.8-0.8-3.3-1.9-4.8c-1.8-2-5-3-9.5-3
			c-3,0-5.3,0.6-6.8,1.7c-1.5,1.1-2.3,2.6-2.3,4.4c0,2,1,3.6,3,4.8c1.2,0.7,2.9,1.3,5.2,1.9l5.3,1.3c5.7,1.3,9.5,2.7,11.4,3.9
			c3,2,4.5,5.1,4.5,9.3c0,4.1-1.6,7.7-4.8,10.7c-3.2,3-8,4.5-14.4,4.5c-7,0-11.9-1.5-14.8-4.7c-2.9-3.1-4.4-7-4.6-11.6L418.6,385.5
			L418.6,385.5z"/>
	</g>
</g>
<g id="maps">
	<g>
		<path fill="#FFFFFF" d="M205.7,334.6h12.5l18.5,54.3l18.4-54.3h12.4v64.2h-8.3V361c0-1.3,0.1-3.5,0.1-6.5s0.1-6.3,0.1-9.7
			L241,398.9h-8.6l-18.5-54.2v2c0,1.5,0.1,4,0.1,7.2c0.1,3.2,0.1,5.6,0.1,7.1v37.9h-8.3L205.7,334.6L205.7,334.6z"/>
		<path fill="#FFFFFF" d="M304.6,370.6c1.8-0.2,3-1,3.6-2.3c0.3-0.7,0.5-1.7,0.5-3c0-2.7-0.9-4.6-2.9-5.9c-1.9-1.2-4.6-1.8-8.2-1.8
			c-4.1,0-7,1.1-8.7,3.3c-0.9,1.2-1.6,3-1.9,5.5h-7.4c0.2-5.8,2-9.8,5.6-12.1c3.6-2.3,7.8-3.4,12.5-3.4c5.5,0,10,1.1,13.4,3.2
			c3.4,2.1,5.1,5.4,5.1,9.8v27c0,0.8,0.2,1.5,0.5,2c0.3,0.5,1.1,0.7,2.1,0.7c0.3,0,0.7,0,1.2-0.1c0.4-0.1,0.9-0.1,1.4-0.2v5.8
			c-1.2,0.3-2.2,0.6-2.8,0.7c-0.7,0.1-1.5,0.1-2.6,0.1c-2.7,0-4.7-0.9-5.9-2.9c-0.7-1-1.1-2.5-1.4-4.3c-1.6,2.1-3.9,3.9-6.9,5.5
			c-3,1.5-6.3,2.3-10,2.3c-4.4,0-7.9-1.3-10.7-4c-2.8-2.7-4.1-5.9-4.1-9.9c0-4.3,1.4-7.7,4.1-10.1c2.7-2.4,6.2-3.9,10.7-4.4
			L304.6,370.6z M288,391.8c1.7,1.3,3.6,2,5.9,2c2.8,0,5.5-0.7,8.1-1.9c4.4-2.1,6.6-5.6,6.6-10.4v-6.4c-0.9,0.6-2.2,1.1-3.7,1.5
			c-1.5,0.4-3,0.7-4.5,0.9l-4.8,0.6c-2.9,0.4-5,1-6.4,1.8c-2.4,1.4-3.6,3.5-3.6,6.5C285.5,388.7,286.3,390.5,288,391.8z"/>
		<path fill="#FFFFFF" d="M328.7,352.3h7.7v6.2c1.6-2.1,3.3-3.8,5.2-4.9c2.7-1.8,5.8-2.6,9.4-2.6c5.3,0,9.8,2,13.5,6.1
			c3.7,4.1,5.6,9.9,5.6,17.4c0,10.2-2.7,17.5-8,21.9c-3.4,2.8-7.4,4.1-11.8,4.1c-3.5,0-6.5-0.8-8.9-2.3c-1.4-0.9-3-2.4-4.7-4.5v23.9
			h-7.9v-65.4H328.7z M358.2,389c2.4-3.1,3.6-7.7,3.6-13.8c0-3.8-0.6-7-1.6-9.6c-2-5.1-5.8-7.7-11.2-7.7c-5.5,0-9.2,2.7-11.2,8.2
			c-1.1,2.9-1.6,6.6-1.6,11.1c0,3.6,0.6,6.7,1.6,9.2c2,4.9,5.8,7.2,11.2,7.2C352.8,393.6,355.8,392.1,358.2,389z"/>
		<path fill="#FFFFFF" d="M383.8,384.2c0.2,2.6,0.9,4.6,2,6c2,2.5,5.5,3.8,10.6,3.8c3,0,5.6-0.6,7.9-1.9s3.4-3.2,3.4-5.9
			c0-2-0.9-3.5-2.7-4.6c-1.2-0.7-3.4-1.4-6.9-2.2l-6.4-1.5c-4-1-7.1-2.1-9-3.3c-3.4-2.1-5.1-5.1-5.1-8.8c0-4.4,1.6-8,4.9-10.8
			c3.3-2.8,7.6-4.1,13-4.1c7.1,0,12.3,2,15.5,6.2c2,2.6,2.9,5.5,2.9,8.5h-7.4c-0.2-1.8-0.8-3.4-1.9-4.8c-1.8-2-5.1-3.1-9.6-3.1
			c-3,0-5.4,0.6-6.9,1.7c-1.5,1.1-2.4,2.7-2.4,4.5c0,2,1.1,3.6,3.1,4.9c1.2,0.7,2.9,1.4,5.3,1.9l5.3,1.3c5.8,1.4,9.6,2.7,11.6,4
			c3,2,4.6,5.2,4.6,9.5c0,4.1-1.6,7.8-4.8,10.8c-3.2,3-8.1,4.5-14.7,4.5c-7.1,0-12.1-1.6-15-4.8c-2.9-3.2-4.5-7.1-4.7-11.7
			L383.8,384.2L383.8,384.2z"/>
	</g>
</g>
</svg>
