<?xml version="1.0" encoding="utf-8"?>
<!-- Generator: Adobe Illustrator 18.1.1, SVG Export Plug-In . SVG Version: 6.00 Build 0)  -->
<svg version="1.1"
	 id="svg3743" xmlns:cc="http://creativecommons.org/ns#" xmlns:inkscape="http://www.inkscape.org/namespaces/inkscape" xmlns:sodipodi="http://sodipodi.sourceforge.net/DTD/sodipodi-0.dtd" xmlns:svg="http://www.w3.org/2000/svg" xmlns:rdf="http://www.w3.org/1999/02/22-rdf-syntax-ns#" xmlns:dc="http://purl.org/dc/elements/1.1/" sodipodi:docname="New document 3" inkscape:version="0.48.2 r9819"
	 xmlns="http://www.w3.org/2000/svg" xmlns:xlink="http://www.w3.org/1999/xlink" x="0px" y="0px"
	 viewBox="549.5 564.3 612.1 144.4" enable-background="new 549.5 564.3 612.1 144.4" xml:space="preserve">
<g>
	<g>
		<path fill="#FFFFFF" d="M1153.8,566L1153.8,566L1153.8,566c0,0-1.2-0.2-2-0.2c-4.5,0-8.9,2.7-8.9,9.5c-2.7,34.3-5.4,68.7-10,101.4
			l0,0c0,0,0,0,0,0c0,0,0,0,0,0l0,0c2.8-0.5,4.9,0.2,7,1.1l0,0c5.2-33.2,17.5-83,20.6-97.1c0.5-2,1.1-4.3,1.1-6
			C1161.6,569.7,1158.5,566.7,1153.8,566z M829,579.5c0.9,17.7,1.4,35.4,1.4,53.2c-20.9,0.5-41.8,0.5-62.6,0
			c0.1-17.7,0.5-35.5,1.4-53.2c-6.1,1.5-12.3,1.5-18.7,0c1.6,38,1.5,76,0,113.9c6.1-1.5,12.3-1.6,18.7,0l0,0l0.1,0
			c-0.9-17.7-1.4-35.3-1.4-53c20.9-0.3,41.8-0.3,62.6,0c-0.1,17.7-0.5,35.3-1.4,53l0.1,0l0,0c6.4-1.6,12.6-1.5,18.7,0
			c-1.5-37.9-1.6-75.9,0-113.9C841.3,581,835.1,581,829,579.5z M695.7,579.4L695.7,579.4L695.7,579.4c-4.7,1.6-8.4,1.6-13,0l0,0
			c-15,38.4-32.4,81.7-48,114l0.1,0l-0.1,0c7.1-1.8,13.9-1.2,18.4,0c0,0,0,0,0,0l0,0c4-10.2,8.5-21.8,13-33.4l0,0
			c15.3-0.4,30.6-0.5,46,0l0,0c4.4,11.1,8.7,22.3,13,33.4l0,0c6.8-1.8,13.6-1.3,18.6,0l0,0C732.6,672.1,710,616.3,695.7,579.4z
			 M709.1,652c-13.2,0.5-26.5,0.5-39.8,0l0,0c8.1-20.9,15.8-41.1,19.9-53C695.4,616.6,702.2,634.3,709.1,652L709.1,652z
			 M661.8,564.3C661.7,564.3,661.7,564.3,661.8,564.3L661.8,564.3c-6.7,1.6-12.8,1.6-18.8,0v0c-5.3,10.1-24.9,42.6-37.4,63.4
			c-12.6-21.3-27.6-45.9-37.4-63.4l-6.5,4.3c0,0,0,0,0,0l6.5-4.3c-7.7,1.7-11,1.8-18.7,0c15.3,23.4,39.9,68.1,48.2,82.8l-1.1,61.1
			c0,0,5.4-0.9,9-0.9c4,0,9,0.9,9,0.9l-1.1-61.1C629,619.3,654.7,574,661.8,564.3z M913.5,577.9c-39.6,0-60.4,25.5-60.4,58.6
			c0,36.2,22.7,58.3,60.4,58.3c40.7,0,60.6-24.9,60.6-58C974,600.1,950.3,577.9,913.5,577.9z M913.6,688.5
			c-26.4,0-41.9-19.2-41.9-51.7c0-36.7,19.1-51.5,40.9-51.9c0.3,0,0.7,0,1,0c24.2,0,42,16.8,42,51.8
			C955.6,671.7,937.8,688.5,913.6,688.5z M1050.3,571.1c-39.5,0-69.6,22.8-69.6,65.1c0,34.9,20.1,65.6,70,65.6
			c42.2,0,69.8-23.6,69.8-65C1120.5,597.8,1094.7,571.1,1050.3,571.1z M1050.4,694.9c-26.7,0-51.1-15.9-51.1-59
			c0-44.6,27-57.8,51-57.8c29.6,0,51.5,18.3,51.5,58.7C1101.8,680.7,1075.4,694.9,1050.4,694.9z M1132.3,690.5
			c-5.9,0-8.8,4.6-8.8,9.5v0c0,5.8,4.5,8.7,10.2,8.7c4.1,0,8.5-2.5,8.5-9.3C1142.2,693.9,1138,690.5,1132.3,690.5z M634.7,693.4
			L634.7,693.4C634.7,693.4,634.7,693.4,634.7,693.4L634.7,693.4z"/>
	</g>
</g>
</svg>
