<?xml version="1.0" encoding="utf-8"?>
<!-- Generator: Adobe Illustrator 18.1.1, SVG Export Plug-In . SVG Version: 6.00 Build 0)  -->
<svg version="1.1"
	 id="svg2" xmlns:cc="http://creativecommons.org/ns#" xmlns:svg="http://www.w3.org/2000/svg" xmlns:rdf="http://www.w3.org/1999/02/22-rdf-syntax-ns#" xmlns:dc="http://purl.org/dc/elements/1.1/"
	 xmlns="http://www.w3.org/2000/svg" xmlns:xlink="http://www.w3.org/1999/xlink" x="0px" y="0px" viewBox="-240 371.7 27.5 50.5"
	 enable-background="new -240 371.7 27.5 50.5" xml:space="preserve">
<g id="g10" transform="matrix(1.25,0,0,-1.25,-193.46271,442.73946)">
	<path id="path48" fill="#FFFFFF" d="M-15.6,56.8h-3.4c-0.3,0-0.5-0.1-0.5-0.4c0-0.2-5.1-15.7-5.5-17c-0.3-0.9-1.1-4.1-1.3-4.9
		l-1.8,4.8c-0.4,1.3-4.5,12.8-4.7,13.3c-0.1,0.3-0.2,0.6-0.6,0.6h-3.3c-0.3,0-0.5-0.4-0.4-0.6c0.1-0.2,6.1-16.2,8.5-22.3V16.8
		c0-0.2,0.1-0.4,0.3-0.4h3.2c0.2,0,0.3,0.1,0.3,0.4v12.8v0.6c2,5.7,9.4,25.8,9.5,26.1C-15.2,56.5-15.2,56.8-15.6,56.8L-15.6,56.8z"
		/>
</g>
</svg>
