<?xml version="1.0" encoding="UTF-8" standalone="no"?>
<svg width="17px" height="18px" viewBox="0 0 17 18" version="1.1" xmlns="http://www.w3.org/2000/svg" xmlns:xlink="http://www.w3.org/1999/xlink" xmlns:sketch="http://www.bohemiancoding.com/sketch/ns">
    <!-- Generator: Sketch 3.4 (15575) - http://www.bohemiancoding.com/sketch -->
    <title>cliqz_icon</title>
    <desc>Created with Sketch.</desc>
    <defs>
        <path id="path-1" d="M0,0.0933540373 L16.9336452,0.0933540373 L16.9336452,17.1428571 L0,17.1428571"></path>
    </defs>
    <g id="mini-onboarding" stroke="none" stroke-width="1" fill="none" fill-rule="evenodd" sketch:type="MSPage">
        <g id="first-time-copy" sketch:type="MSArtboardGroup" transform="translate(-120.000000, -259.000000)">
            <g id="cliqz_icon" sketch:type="MSLayerGroup" transform="translate(120.000000, 259.000000)">
                <g id="Group-3">
                    <mask id="mask-2" sketch:name="Clip 2" fill="white">
                        <use xlink:href="#path-1"></use>
                    </mask>
                    <g id="Clip-2"></g>
                    <path d="M16.5707226,10.083913 C16.681314,9.53850932 16.738529,8.97708075 16.738529,8.40763975 C16.738529,3.79118012 13.2513355,0.0933540373 8.39171183,0.0933540373 C3.53227097,0.0933540373 -7.31182796e-05,3.83701863 -7.31182796e-05,8.40763975 C-7.31182796e-05,13.0240994 3.48712043,16.7217391 8.34674409,16.7217391 C8.66316344,16.7217391 8.97446452,16.7053416 9.27991613,16.6732919 C8.93132473,15.6253416 8.56116344,14.5129193 8.2100129,13.4571429 C5.51633548,13.3598758 3.62220645,11.1035404 3.62220645,8.40763975 L3.62220645,8.36161491 C3.62220645,5.60552795 5.55691613,3.35478261 8.34674409,3.35478261 C11.1192065,3.35478261 13.0917548,5.62322981 13.1160667,8.35658385 C14.2676796,8.93236025 15.4191097,9.50813665 16.5707226,10.083913" id="Fill-1" fill="#999999" sketch:type="MSShapeGroup" mask="url(#mask-2)"></path>
                </g>
                <path d="M11.1120957,17.0693851 L12.6709774,13.8373975 L15.9932892,17.1428012 C15.9932892,17.1428012 17.1169344,16.1660311 16.9076333,15.9267764 C15.9196226,14.7975839 13.5853215,12.6213727 13.5853215,12.6213727 L16.3482785,11.6501925 L7.87496667,7.47162112 L11.1120957,17.0693851 Z" id="Fill-4" fill="#999999" sketch:type="MSShapeGroup"></path>
            </g>
        </g>
    </g>
</svg>