<?xml version="1.0" encoding="utf-8"?>
<!-- Generator: Adobe Illustrator 18.1.1, SVG Export Plug-In . SVG Version: 6.00 Build 0)  -->
<svg version="1.1" id="Layer_1" xmlns="http://www.w3.org/2000/svg" xmlns:xlink="http://www.w3.org/1999/xlink" x="0px" y="0px"
	 viewBox="0 0 40 29.4" enable-background="new 0 0 40 29.4" xml:space="preserve">
<path fill="#EAEAEA" d="M25.8,21.9l9.5,0c2.9-0.8,4.7-3.8,4.7-6.9c0-3.6-2.8-6.6-6.3-6.9c0.1-0.4,0.1-0.8,0.1-1.2
	c0-3.8-3.1-6.9-6.9-6.9c-2.9,0-5.4,1.8-6.4,4.4c-1.5-1-3.3-1.6-5.2-1.6c-5.2,0-9.5,4.3-9.5,9.5c0,0.7,0.1,1.3,0.2,1.9"/>
<path fill="#C1C1C1" d="M29.4,23.5c0-3.1-2.4-5.6-5.4-5.9c0.1-0.3,0.1-0.7,0.1-1c0-3.3-2.6-5.9-5.9-5.9c-2.5,0-4.7,1.6-5.5,3.8
	c-1.3-0.8-2.8-1.3-4.5-1.3c-4.5,0-8.1,3.6-8.1,8.1c0,4.5,3.6,8.1,8,8.1l17.3,0C27.8,28.7,29.4,26.2,29.4,23.5z"/>
<g>
</g>
<g>
</g>
<g>
</g>
<g>
</g>
<g>
</g>
<g>
</g>
<g>
</g>
<g>
</g>
<g>
</g>
<g>
</g>
<g>
</g>
<g>
</g>
<g>
</g>
<g>
</g>
<g>
</g>
</svg>
