<?xml version="1.0" encoding="utf-8"?>
<!-- Generator: Adobe Illustrator 18.1.1, SVG Export Plug-In . SVG Version: 6.00 Build 0)  -->
<svg version="1.1" id="Layer_1" xmlns="http://www.w3.org/2000/svg" xmlns:xlink="http://www.w3.org/1999/xlink" x="0px" y="0px"
	 viewBox="0 0 41 40.6" enable-background="new 0 0 41 40.6" xml:space="preserve">
<circle fill="#FEDE07" cx="21" cy="21.3" r="12.9"/>
<line fill="none" stroke="#FEDE07" stroke-width="2" stroke-linecap="round" stroke-miterlimit="10" x1="21" y1="7" x2="21" y2="1"/>
<line fill="none" stroke="#FEDE07" stroke-width="2" stroke-linecap="round" stroke-miterlimit="10" x1="6" y1="22" x2="1" y2="22"/>
<line fill="none" stroke="#FEDE07" stroke-width="2" stroke-linecap="round" stroke-miterlimit="10" x1="40" y1="22" x2="37" y2="22"/>
<line fill="none" stroke="#FEDE07" stroke-width="2" stroke-linecap="round" stroke-miterlimit="10" x1="10.3" y1="10.8" x2="6.8" y2="7.3"/>
<line fill="none" stroke="#FEDE07" stroke-width="2" stroke-linecap="round" stroke-miterlimit="10" x1="35.2" y1="35.8" x2="31.8" y2="32.3"/>
<line fill="none" stroke="#FEDE07" stroke-width="2" stroke-linecap="round" stroke-miterlimit="10" x1="10.3" y1="32.3" x2="6.8" y2="35.8"/>
<line fill="none" stroke="#FEDE07" stroke-width="2" stroke-linecap="round" stroke-miterlimit="10" x1="35.2" y1="7.3" x2="31.8" y2="10.8"/>
<path fill="#EAEAEA" d="M28.4,35c0-2.9-2.3-5.4-5.2-5.6c0.1-0.3,0.1-0.7,0.1-1c0-3.1-2.5-5.6-5.6-5.6c-2.4,0-4.4,1.5-5.2,3.6
	c-1.2-0.8-2.7-1.3-4.2-1.3c-4.3,0-7.7,3.5-7.7,7.7c0,4.2,3.4,7.7,7.6,7.7l16.5,0C26.9,39.9,28.4,37.5,28.4,35z"/>
<g>
</g>
<g>
</g>
<g>
</g>
<g>
</g>
<g>
</g>
<g>
</g>
<g>
</g>
<g>
</g>
<g>
</g>
<g>
</g>
<g>
</g>
<g>
</g>
<g>
</g>
<g>
</g>
<g>
</g>
</svg>
