<?xml version="1.0" encoding="utf-8"?>
<!-- Generator: Adobe Illustrator 18.1.1, SVG Export Plug-In . SVG Version: 6.00 Build 0)  -->
<svg version="1.1" id="Layer_1" xmlns="http://www.w3.org/2000/svg" xmlns:xlink="http://www.w3.org/1999/xlink" x="0px" y="0px"
	 viewBox="0 0 40 43" enable-background="new 0 0 40 43" xml:space="preserve">
<path fill="#BCBCBC" d="M40,17.5c0-4.2-3.3-7.7-7.4-8C32.7,9,32.7,8.5,32.7,8c0-4.4-3.6-8-8-8c-3.4,0-6.4,2.1-7.5,5.2
	c-1.7-1.1-3.8-1.8-6.1-1.8C5,3.4,0,8.3,0,14.4c0,6.1,4.9,11,10.9,11.1l23.6,0.1C37.9,24.6,40,21.2,40,17.5z"/>
<path fill="#429ABD" d="M28.2,31.6c0.5-1.1,3.5-2.6,3.5-2.6s1,3.2,0.5,4.3c-0.5,1.1-1.8,1.6-2.9,1.2C28.3,34,27.8,32.7,28.2,31.6z"
	/>
<path fill="#429ABD" d="M17.1,31.6c0.5-1.1,3.5-2.6,3.5-2.6s1,3.2,0.5,4.3c-0.5,1.1-1.8,1.6-2.9,1.2C17.2,34,16.7,32.7,17.1,31.6z"
	/>
<path fill="#429ABD" d="M6.8,31.6c0.5-1.1,3.5-2.6,3.5-2.6s1,3.2,0.5,4.3c-0.5,1.1-1.8,1.6-2.9,1.2C6.8,34,6.3,32.7,6.8,31.6z"/>
<path fill="#429ABD" d="M24.1,40c0.5-1.1,3.5-2.6,3.5-2.6s1,3.2,0.5,4.3c-0.5,1.1-1.8,1.6-2.9,1.2C24.2,42.4,23.7,41.1,24.1,40z"/>
<path fill="#429ABD" d="M13,40c0.5-1.1,3.5-2.6,3.5-2.6s1,3.2,0.5,4.3c-0.5,1.1-1.8,1.6-2.9,1.2C13.1,42.4,12.6,41.1,13,40z"/>
<g>
</g>
<g>
</g>
<g>
</g>
<g>
</g>
<g>
</g>
<g>
</g>
<g>
</g>
<g>
</g>
<g>
</g>
<g>
</g>
<g>
</g>
<g>
</g>
<g>
</g>
<g>
</g>
<g>
</g>
</svg>
