<?xml version="1.0" encoding="utf-8"?>
<!-- Generator: Adobe Illustrator 18.1.1, SVG Export Plug-In . SVG Version: 6.00 Build 0)  -->
<svg version="1.1" id="Layer_1" xmlns="http://www.w3.org/2000/svg" xmlns:xlink="http://www.w3.org/1999/xlink" x="0px" y="0px"
	 viewBox="0 0 40 46.5" enable-background="new 0 0 40 46.5" xml:space="preserve">
<path fill="#BCBCBC" d="M40,17.6c0-4.2-3.3-7.7-7.4-8.1c0.1-0.5,0.1-1,0.1-1.5c0-4.4-3.6-8.1-8-8.1c-3.4,0-6.4,2.1-7.5,5.2
	c-1.7-1.1-3.8-1.8-6.1-1.8C5,3.3,0,8.4,0,14.5c0,6.1,4.9,11.2,10.9,11.2h23.2C37.5,24.7,40,21.3,40,17.6z"/>
<polygon fill="#FEDE07" points="18.4,14.8 6.8,30.8 13.4,32.9 8.7,46.5 21.1,30.4 14.6,28.1 "/>
<polygon fill="#FEDE07" points="28.2,26.6 22.1,35 25.5,36.1 23.1,43.2 29.6,34.8 26.2,33.6 "/>
<g>
</g>
<g>
</g>
<g>
</g>
<g>
</g>
<g>
</g>
<g>
</g>
<g>
</g>
<g>
</g>
<g>
</g>
<g>
</g>
<g>
</g>
<g>
</g>
<g>
</g>
<g>
</g>
<g>
</g>
</svg>
