<?xml version="1.0" encoding="utf-8"?>
<!-- Generator: Adobe Illustrator 18.1.1, SVG Export Plug-In . SVG Version: 6.00 Build 0)  -->
<svg version="1.1" id="Layer_1" xmlns="http://www.w3.org/2000/svg" xmlns:xlink="http://www.w3.org/1999/xlink" x="0px" y="0px"
	 viewBox="-241 333 128 128" enable-background="new -241 333 128 128" xml:space="preserve">
<path fill="#FFFFFF" d="M-229.4,452H-125c7.3,0,12-7.7,8.7-14.2l-52.2-92.5c-3.6-7.2-13.9-7.2-17.5,0l-52.2,92.5
	C-241.4,444.3-236.7,452-229.4,452z M-169,430.5c0,4.8-3.5,8.5-8.5,8.5s-8.5-3.7-8.5-8.5v-0.2c0-4.8,3.5-8.5,8.5-8.5
	s8.5,3.7,8.5,8.5V430.5z M-182.1,368h9.8c2.7,0,4.3,2.3,4,5.2l-4.3,37.6c-0.3,2.7-2.1,4.4-4.6,4.4s-4.3-1.7-4.6-4.4l-4.3-37.6
	C-186.4,370.3-184.8,368-182.1,368z"/>
</svg>
