<?xml version="1.0" encoding="UTF-8" standalone="no"?>
<svg width="18px" height="16px" viewBox="0 0 18 16" version="1.1" xmlns="http://www.w3.org/2000/svg" xmlns:xlink="http://www.w3.org/1999/xlink" xmlns:sketch="http://www.bohemiancoding.com/sketch/ns">
    <!-- Generator: Sketch 3.3.3 (12072) - http://www.bohemiancoding.com/sketch -->
    <title>Shape Copy 4</title>
    <desc>Created with Sketch.</desc>
    <defs></defs>
    <g id="level-badges/notifier" stroke="none" stroke-width="1" fill="none" fill-rule="evenodd" sketch:type="MSPage">
        <g id="browser-icons" sketch:type="MSArtboardGroup" transform="translate(-233.000000, -73.000000)" fill="#F9204C">
            <g id="member" sketch:type="MSLayerGroup" transform="translate(143.000000, 37.000000)">
                <path d="M104.564885,38.226087 L104.564885,36 L93.4351145,36 L93.4351145,38.226087 L90,38.226087 L90,39.4226087 L90,40.5634783 C90,42.4556522 91.5251908,43.986087 93.3801527,43.986087 C93.7374046,43.986087 94.0534351,43.9304348 94.3694656,43.8330435 C95.1801527,45.0156522 96.4580153,45.8643478 97.8320611,46.1565217 L97.8320611,49.6347826 L96.7603053,49.6347826 C95.5236641,49.6347826 94.5206107,50.7478261 94.5206107,52 L103.49313,52 C103.49313,50.7478261 102.490076,49.6347826 101.253435,49.6347826 L100.167939,49.6347826 L100.167939,46.1565217 C101.541985,45.8643478 102.819847,45.0017391 103.616794,43.8330435 C103.932824,43.9304348 104.276336,43.986087 104.633588,43.986087 C106.48855,43.986087 108,42.4556522 108,40.5634783 L108,39.4226087 L108,38.226087 L104.564885,38.226087 L104.564885,38.226087 Z M93.3938931,43.1698551 C92.2671756,43.1698551 91.3740458,42.2376812 91.3740458,41.0968116 L91.3740458,40.0115942 L93.4351145,40.0115942 L93.4351145,41.0968116 C93.4351145,41.8202899 93.5450382,42.502029 93.778626,43.1281159 C93.6687023,43.155942 93.5175573,43.1698551 93.3938931,43.1698551 L93.3938931,43.1698551 Z M95.0015267,42.5429952 C94.3969466,40.5140097 94.5755725,37.6463768 94.5755725,37.6463768 L95.8534351,37.6463768 C95.8534351,37.6463768 95.7160305,39.4454106 95.8534351,41.3932367 C95.9908397,43.3410628 96.7740458,45.1130435 96.7740458,45.1130435 C96.7740458,45.1130435 95.5923664,44.5719807 95.0015267,42.5429952 L95.0015267,42.5429952 Z M106.625954,41.0968116 C106.625954,42.2376812 105.719084,43.1698551 104.606107,43.1698551 C104.482443,43.1698551 104.345038,43.155942 104.221374,43.142029 C104.454962,42.515942 104.564885,41.8202899 104.564885,41.1107246 L104.564885,40.0115942 L106.625954,40.0115942 L106.625954,41.0968116 L106.625954,41.0968116 Z" id="Shape-Copy-4" sketch:type="MSShapeGroup"></path>
            </g>
        </g>
    </g>
</svg>