<?xml version="1.0" encoding="UTF-8" standalone="no"?>
<svg width="18px" height="16px" viewBox="0 0 18 16" version="1.1" xmlns="http://www.w3.org/2000/svg" xmlns:xlink="http://www.w3.org/1999/xlink" xmlns:sketch="http://www.bohemiancoding.com/sketch/ns">
    <!-- Generator: Sketch 3.3.3 (12072) - http://www.bohemiancoding.com/sketch -->
    <title>Shape Copy 6</title>
    <desc>Created with Sketch.</desc>
    <defs></defs>
    <g id="level-badges/notifier" stroke="none" stroke-width="1" fill="none" fill-rule="evenodd" sketch:type="MSPage">
        <g id="browser-icons" sketch:type="MSArtboardGroup" transform="translate(-188.000000, -73.000000)" fill="#F9204C">
            <path d="M202.62497,75.2857241 L202.62497,73 L191.374996,73 L191.374996,75.2857241 L188,75.2857241 L188,76.428569 L188,77.5714139 C188,79.4649782 189.510986,80.9999829 191.374996,80.9999829 C191.727885,80.9999829 192.068085,80.9448858 192.387832,80.8428173 C193.199485,82.021525 194.437568,82.8748958 195.874979,83.1713299 L195.874979,86.7142759 L194.749992,86.7142759 C193.507318,86.7142759 192.499983,87.7376352 192.499983,89 L201.499983,89 C201.499983,87.7376352 200.492648,86.7142759 199.250008,86.7142759 L198.124987,86.7142759 L198.124987,83.1713299 C199.562398,82.8748958 200.800448,82.0215593 201.612134,80.8428173 C201.931915,80.9448858 202.272081,80.9999829 202.625004,80.9999829 C204.489014,80.9999829 206,79.464944 206,77.5714139 L206,76.428569 L206,75.2857241 L202.62497,75.2857241 L202.62497,75.2857241 Z M191.374996,79.6428524 C190.250683,79.6428524 189.335925,78.7135731 189.335925,77.5714139 L189.335925,76.428569 L191.374996,76.428569 L191.374996,77.5714139 C191.374996,78.2890134 191.505608,78.97555 191.743343,79.608361 C191.623767,79.6306124 191.500782,79.6428524 191.374996,79.6428524 L191.374996,79.6428524 Z M204.664042,77.5714482 C204.664042,78.7136073 203.749317,79.6428867 202.625004,79.6428867 C202.499184,79.6428867 202.376233,79.6306467 202.256691,79.6083953 C202.494392,78.9755843 202.625004,78.2890819 202.625004,77.5714482 L202.625004,76.4286033 L204.664042,76.4286033 L204.664042,77.5714482 L204.664042,77.5714482 Z" id="Shape-Copy-6" sketch:type="MSShapeGroup"></path>
        </g>
    </g>
</svg>