<?xml version="1.0" encoding="utf-8"?>
<!-- Generator: Adobe Illustrator 18.1.0, SVG Export Plug-In . SVG Version: 6.00 Build 0)  -->
<svg version="1.1" id="Layer_1" xmlns="http://www.w3.org/2000/svg" xmlns:xlink="http://www.w3.org/1999/xlink" x="0px" y="0px"
	 viewBox="0 0 1666 1979" enable-background="new 0 0 1666 1979" xml:space="preserve">
<g>
	<g>
		<path fill="#FFFFFF" d="M575.7,0C412.5,0,234.4,153.4,234.4,494.8c0,366.1,183.1,697.6,470,875.7c-143.5-49.5-282-133.6-282-133.6
			c-99,54.4-316.6,247.4-316.6,499.7c-4.9,168.2,94,242.4,207.8,242.4c390.9,0,702.5-687.7,702.5-1281.4
			C1016.1,143.5,704.4,0,575.7,0z M1486.1,549.2c-103.9,0-247.4,173.2-336.4,346.3c-89.1,178.1-173.2,385.9-282,667.9
			c-24.7,69.3-49.5,158.3-49.5,222.6c0,84.1,29.7,118.7,74.2,118.7c113.8,0,296.8-267.2,291.9-554.1
			c173.2-183.1,385.9-475,385.9-702.5C1565.2,598.6,1550.4,549.2,1486.1,549.2z"/>
	</g>
</g>
</svg>
