<?xml version="1.0" encoding="utf-8"?>
<!-- Generator: Adobe Illustrator 18.1.0, SVG Export Plug-In . SVG Version: 6.00 Build 0)  -->
<svg version="1.1" id="Layer_1" xmlns="http://www.w3.org/2000/svg" xmlns:xlink="http://www.w3.org/1999/xlink" x="0px" y="0px"
	 viewBox="0 0 1666 1979" enable-background="new 0 0 1666 1979" xml:space="preserve">
<path fill="#FFFFFF" d="M1499.4,1543.8l166.6-67.3V1281l-166.6,70.5V1543.8z M1499.4,1287.5L1666,1217V800.5l-166.6,92.9V1287.5z
	 M1191.8,1482.9v179.4l253.1-92.9v-185.8L1191.8,1482.9z M1191.8,1060v355.6l253.1-96.1V935L1191.8,1060z M1537.8,672.3
	c-19.2,19.2-38.4,35.2-60.9,54.5c-22.4,19.2-41.7,35.2-67.3,51.3c-22.4,16-44.9,32-67.3,48.1c-22.4,16-44.9,28.8-64.1,41.6
	c-16,9.6-35.2,22.4-51.3,32c-16,9.6-25.6,16-38.4,22.4v70.5l474.2-256.3V537.8c-12.8,12.8-25.6,22.4-35.2,35.2
	c-9.6,9.6-22.4,22.4-28.8,35.2c-12.8,12.8-22.4,25.6-28.8,35.2C1560.3,649.9,1550.7,659.5,1537.8,672.3L1537.8,672.3z M1191.8,489.7
	v285.1c19.2-9.6,44.9-22.4,70.5-38.4s51.3-32,73.7-48.1c25.6-16,48.1-35.2,70.5-51.3c22.4-19.2,44.9-35.2,60.9-54.5
	c22.4-22.4,41.7-41.7,60.9-64.1c19.2-19.2,35.2-38.4,51.3-57.7c9.6-12.8,25.6-28.8,44.9-51.3c12.8-16,28.8-28.8,41.7-41.6v-67.3
	L1191.8,489.7z M1111.7,1502.1l-141-38.4v169.8l141,44.9V1502.1z M1111.7,1088.8c-12.8-3.2-25.6-3.2-35.2-6.4
	c-9.6,0-19.2-3.2-25.6-3.2c-9.6,0-19.2-3.2-32-3.2c-9.6,0-25.6-3.2-48.1-3.2v330l141,38.4L1111.7,1088.8L1111.7,1088.8z
	 M554.3,1482.9l362,125v-160.2l-362-86.5V1482.9z M836.2,1044c-35.2-6.4-64.1-12.8-89.7-16c-22.4-3.2-44.9-6.4-70.5-9.6
	c-22.4-3.2-41.7-3.2-60.9-6.4c-19.2,0-38.4-3.2-60.9-6.4v294.8l362,83.3v-330c-16,0-28.8,0-41.7-3.2
	C861.8,1047.2,849,1044,836.2,1044L836.2,1044z M1111.7,951.1c-44.9-3.2-89.7-9.6-141-19.2c-51.3-9.6-102.5-16-150.6-25.6
	c-51.3-9.6-99.3-19.2-144.2-28.8c-44.9-9.6-86.5-19.2-121.7-28.8v89.7c22.4,3.2,41.6,6.4,60.9,9.6c22.4,3.2,41.7,6.4,64.1,9.6
	c19.2,3.2,44.9,6.4,70.5,9.6c25.6,3.2,51.3,9.6,80.1,12.8c35.2,6.4,64.1,12.8,86.5,16c25.6,6.4,51.3,9.6,73.7,16
	c22.4,3.2,44.9,9.6,64.1,12.8s38.4,6.4,57.7,6.4V951.1z M1111.7,502.5L554.3,310.3v406.9c22.4,3.2,48.1,9.6,76.9,16
	c22.4,3.2,54.5,9.6,96.1,16c35.2,6.4,70.5,12.8,102.5,16c48.1,6.4,83.3,12.8,102.5,16c32,6.4,64.1,9.6,96.1,12.8
	c25.6,3.2,54.5,6.4,80.1,12.8V502.5H1111.7z M474.2,1027.9c-6.4,16-19.2,32-35.2,51.3c-16,19.2-35.2,41.6-57.7,67.3
	c-44.9,48.1-67.3,73.7-73.7,80.1c-25.6,28.8-54.5,60.9-76.9,92.9l105.7,224.3l137.8-57.7L474.2,1027.9L474.2,1027.9z M208.3,1374
	c-22.4,28.8-44.9,54.5-67.3,83.3c-16,22.4-38.4,48.1-60.9,76.9c-19.2,22.4-35.2,44.9-48.1,64.1s-22.4,32-32,44.9v35.2L298,1563
	L208.3,1374z M474.2,858.1c-19.2,12.8-38.4,28.8-64.1,48.1c-25.6,22.4-51.3,44.9-76.9,67.3c-25.6,22.4-54.5,51.3-86.5,83.3
	s-60.9,60.9-89.7,89.7c-25.6,28.8-54.5,60.9-83.3,92.9s-51.3,64.1-73.7,92.9v195.4c12.8-16,28.8-32,41.6-48.1
	c12.8-19.2,28.8-38.4,41.6-57.7c25.6-35.2,38.4-57.7,44.9-67.3c19.2-22.4,35.2-48.1,54.5-70.5c35.2-44.9,70.5-89.7,105.7-128.2
	c38.4-41.6,67.3-73.7,92.9-102.5c12.8-16,28.8-32,41.6-48.1c16-16,32-35.2,48.1-54.5v-92.9H474.2z M474.2,319.9L0,502.5v653.6
	c19.2-22.4,38.4-48.1,64.1-76.9c25.6-28.8,51.3-57.7,76.9-83.3c25.6-25.6,54.5-54.5,83.3-83.3s57.7-54.5,86.5-76.9
	c28.8-22.4,54.5-44.9,83.3-64.1c25.6-19.2,51.3-35.2,76.9-48.1V319.9H474.2z"/>
</svg>
