<?xml version="1.0" encoding="utf-8"?>
<!-- Generator: Adobe Illustrator 18.1.0, SVG Export Plug-In . SVG Version: 6.00 Build 0)  -->
<svg version="1.1" id="Layer_1" xmlns="http://www.w3.org/2000/svg" xmlns:xlink="http://www.w3.org/1999/xlink" x="0px" y="0px"
	 viewBox="0 0 1666 1979" enable-background="new 0 0 1666 1979" xml:space="preserve">
<g>
	<g>
		<path fill="#FFFFFF" d="M1152.9,1062.8c-10,0-20-3.3-26.7-10l-110-83.3v479.8H1606c30,0,56.6-26.7,56.6-56.6V673l-483.1,379.8
			C1172.9,1059.5,1162.9,1062.8,1152.9,1062.8z M0,1595.9l929.6,159.9V223.1L0,386.4V1595.9z M229.9,939.5c3.3-16.7,6.7-33.3,10-50
			c6.7-16.7,10-30,16.7-46.6c6.7-13.3,13.3-26.7,23.3-40c10-13.3,20-23.3,30-33.3c10-10,23.3-20,33.3-26.7
			c13.3-6.7,26.7-13.3,40-16.7c13.3-3.3,30-6.7,46.6-6.7c16.7-3.3,30,0,43.3,3.3c13.3,3.3,26.7,6.7,40,13.3s23.3,13.3,36.7,20
			c13.3,10,23.3,20,33.3,30s20,26.7,26.7,40s13.3,30,20,46.6c6.7,16.7,10,33.3,13.3,53.3c3.3,20,3.3,40,3.3,60
			c6.7,26.7,3.3,46.6,0,66.6c-3.3,20-6.7,36.7-13.3,53.3c-6.7,16.7-13.3,33.3-20,46.6c-10,16.7-16.7,30-26.7,40
			c-10,10-20,23.3-33.3,33.3s-23.3,16.7-36.7,23.3c-13.3,6.7-26.7,10-40,13.3c-13.3,3.3-30,3.3-46.6,3.3c-16.7-3.3-30-3.3-43.3-6.7
			c-13.3-3.3-26.7-10-36.7-16.7c-13.3-6.7-23.3-16.7-33.3-23.3c-10-10-20-20-30-33.3c-10-13.3-16.7-26.7-23.3-40
			c-6.7-13.3-13.3-30-16.7-43.3c-6.7-16.7-10-33.3-10-50c-3.3-16.7-3.3-36.7-3.3-53.3C226.6,976.2,229.9,956.2,229.9,939.5z
			 M1666,583c-3.3-26.7-26.7-50-56.6-50h-593.1v346.5l136.6,103.3L1666,583z M329.9,1062.8c3.3,10,6.7,20,10,30
			c3.3,10,10,16.7,13.3,26.7c6.7,6.7,10,13.3,16.7,20c6.7,6.7,13.3,10,16.7,13.3c6.7,3.3,13.3,6.7,20,10c6.7,3.3,13.3,3.3,23.3,3.3
			s16.7,0,23.3-3.3c6.7-3.3,13.3-3.3,20-6.7c6.7-3.3,13.3-6.7,20-13.3c6.7-6.7,10-10,16.7-20c6.7-6.7,10-16.7,13.3-23.3
			c3.3-10,6.7-20,10-30s6.7-23.3,6.7-33.3s3.3-26.7,3.3-40c0-13.3,0-26.7-3.3-40c0-13.3-3.3-26.7-6.7-36.7c-3.3-10-6.7-20-10-30
			c-3.3-10-10-16.7-13.3-26.7c-6.7-6.7-10-13.3-16.7-20c-6.7-6.7-13.3-10-20-13.3c-6.7-3.3-13.3-6.7-20-6.7c-6.7,0-13.3,0-20,0
			c-10,0-16.7,3.3-23.3,3.3c-6.7,3.3-13.3,6.7-20,10c-6.7,3.3-13.3,10-20,16.7s-10,13.3-16.7,23.3c-6.7,10-10,16.7-13.3,26.7
			s-6.7,20-10,26.7c-3.3,10-3.3,20-6.7,30s-3.3,23.3-3.3,33.3c0,13.3,0,26.7,3.3,36.7C326.5,1042.8,329.9,1052.8,329.9,1062.8z"/>
	</g>
</g>
</svg>
