<?xml version="1.0" encoding="utf-8"?>
<!-- Generator: Adobe Illustrator 18.1.0, SVG Export Plug-In . SVG Version: 6.00 Build 0)  -->
<svg version="1.1" id="Layer_1" xmlns="http://www.w3.org/2000/svg" xmlns:xlink="http://www.w3.org/1999/xlink" x="0px" y="0px"
	 viewBox="0 0 1666 1979" enable-background="new 0 0 1666 1979" xml:space="preserve">
<path fill="#FFFFFF" d="M0,1584.5V430.2c0-8.9,3-17.9,11.9-23.8c5.9-8.9,14.9-11.9,26.8-11.9h1445.8c8.9,0,17.8,3,26.8,11.9
	c3,6,6,14.9,6,23.8v1154.3H0z M148.8,709.9h1222.7V602.8H148.8V709.9z M148.8,1373.3h592V849.7h-592V1373.3z M1261.4,849.7H889.5
	v104.1h371.9V849.7z M1371.5,1060.9h-482V1165h482V1060.9z M1371.5,1269.2h-482v104.1h482V1269.2z M1591.6,1584.5V534.3h38.7
	c8.9,0,17.8,3,26.8,8.9c5.9,8.9,8.9,17.8,8.9,26.8v1014.5H1591.6z"/>
</svg>
