<?xml version="1.0" encoding="utf-8"?>
<!-- Generator: Adobe Illustrator 18.1.0, SVG Export Plug-In . SVG Version: 6.00 Build 0)  -->
<svg version="1.1" id="Layer_1" xmlns="http://www.w3.org/2000/svg" xmlns:xlink="http://www.w3.org/1999/xlink" x="0px" y="0px"
	 viewBox="0 0 1666 1979" enable-background="new 0 0 1666 1979" xml:space="preserve">
<g>
	<g>
		<path fill="#FFFFFF" d="M1209.5,1102.8h-203.3v206.6h203.3V1102.8z M1209.5,1376h-203.3v206.6h203.3V1376z M933,556.3H729.7v206.6
			H933V556.3z M933,829.6H729.7v206.6H933V829.6z M1209.5,829.6h-203.3v206.6h203.3V829.6z M933,1102.8H729.7v206.6H933V1102.8z
			 M1482.7,829.6h-203.3v206.6h203.3V829.6z M1482.7,556.3h-203.3v206.6h203.3V556.3z M1482.7,1102.8h-203.3v206.6h203.3V1102.8z
			 M1209.5,556.3h-203.3v206.6h203.3V556.3z M933,1376H729.7v206.6H933V1376z M386.5,829.6H183.3v206.6h203.3V829.6z M386.5,1102.8
			H183.3v206.6h203.3V1102.8z M1606,236.5H60c-33.3,0-60,26.7-60,60v1389.4c0,33.3,26.7,60,60,60h1549.4c33.3,0,60-26.7,60-60V296.4
			C1666,263.1,1639.3,236.5,1606,236.5z M1552.7,1629.2H113.3V486.4h1439.4L1552.7,1629.2L1552.7,1629.2z M386.5,1376H183.3v206.6
			h203.3V1376z M663.1,556.3H459.8v206.6h203.3V556.3z M663.1,829.6H459.8v206.6h203.3V829.6z M663.1,1376H459.8v206.6h203.3V1376z
			 M663.1,1102.8H459.8v206.6h203.3V1102.8z"/>
	</g>
</g>
</svg>
