<?xml version="1.0" encoding="utf-8"?>
<!-- Generator: Adobe Illustrator 18.1.1, SVG Export Plug-In . SVG Version: 6.00 Build 0)  -->
<svg version="1.1" id="Layer_1" opacity="0.6" xmlns="http://www.w3.org/2000/svg" xmlns:xlink="http://www.w3.org/1999/xlink"
	 x="0px" y="0px" viewBox="0 0 72 72" enable-background="new 0 0 72 72" xml:space="preserve">
<path fill="#FFFFFF" d="M50.8,33.5H38.5V21.2c0-1.7-1.3-3.1-3-3.1c-1.7,0-3,1.4-3,3.1v12.3H21.2c-1.7,0-3.1,1.1-3.1,2.8
	c0,0.9,0.4,1.7,0.9,2.2c0.6,0.6,1.4,0.9,2.2,0.9h11.3v11.3c0,0.9,0.5,1.7,1.1,2.2c0.6,0.6,1.1,0.9,2,0.9c1.7,0,2.9-1.4,2.9-3.1V39.5
	h12.3c1.7,0,3.1-1.3,3.1-3C53.9,34.8,52.5,33.5,50.8,33.5z"/>
<path fill="#FFFFFF" d="M36,4.5C18.6,4.5,4.5,18.6,4.5,36S18.6,67.5,36,67.5S67.5,53.4,67.5,36S53.4,4.5,36,4.5z M36,64
	C20.6,64,8,51.4,8,36C8,20.6,20.6,8,36,8c15.4,0,28,12.6,28,28C64,51.4,51.4,64,36,64z"/>
</svg>
