<?xml version="1.0" encoding="utf-8"?>
<!-- Generator: Adobe Illustrator 18.1.1, SVG Export Plug-In . SVG Version: 6.00 Build 0)  -->
<svg version="1.1" id="Layer_1" xmlns="http://www.w3.org/2000/svg" xmlns:xlink="http://www.w3.org/1999/xlink" x="0px" y="0px"
	 viewBox="0 0 254.9 254.9" enable-background="new 0 0 254.9 254.9" xml:space="preserve">
<path fill="#FFFFFF" d="M127.4,235c-59.3,0-107.5-48.2-107.5-107.5c0-59.3,48.2-107.5,107.5-107.5c59.3,0,107.5,48.2,107.5,107.5
	C235,186.7,186.7,235,127.4,235z M127.4,29.9c-53.8,0-97.5,43.7-97.5,97.5S73.7,225,127.4,225s97.5-43.7,97.5-97.5
	S181.2,29.9,127.4,29.9z"/>
<path fill-rule="evenodd" clip-rule="evenodd" fill="#FFFFFF" d="M67.4,135.8h88.2l-33.4,33.3h23.6l41.7-41.7l-41.7-41.7h-23.6
	l33.4,33.3H67.4V135.8z"/>
</svg>
