<?xml version="1.0" encoding="utf-8"?>
<!-- Generator: Adobe Illustrator 18.1.1, SVG Export Plug-In . SVG Version: 6.00 Build 0)  -->
<svg version="1.1" id="Layer_1" xmlns="http://www.w3.org/2000/svg" xmlns:xlink="http://www.w3.org/1999/xlink" x="0px" y="0px"
	 viewBox="0 0 39.6 41.8" enable-background="new 0 0 39.6 41.8" xml:space="preserve">
<path fill="#CCCCCC" d="M20.8,3.9l0-0.8l0,0l0-0.1l0-0.2l-0.1,0c-0.1-0.3-0.4-0.6-0.8-0.6c-0.4,0-0.7,0.3-0.8,0.6l-0.1,0l0,1.1
	C10.1,4.4,3,11,2.1,19.2l0.4,0.1C3,17.4,4.6,16,6.6,16c2.1,0,3.8,1.4,4.1,3.3l0,0.2l0.4,0l0-0.2c0.4-1.9,2.1-3.4,4.1-3.4
	c1.5,0,2.8,0.8,3.6,1.9l0,16l0,0l0,2.1c0,1-0.8,1.8-1.7,1.8c-0.9,0-1.7-0.7-1.7-1.8c0-0.5-0.4-0.9-0.9-0.9c-0.4,0-0.8,0.3-0.9,0.7
	l0,0l0,0.2c0,1.9,1.5,3.5,3.5,3.5c2,0,3.5-1.7,3.5-3.6l0-2.1l0,0l0-16.3c0.8-1.1,2-1.8,3.4-1.8c2.1,0,3.8,1.4,4.1,3.3l0,0.2l0.4,0
	l0-0.2c0.4-1.9,2.1-3.4,4.1-3.4c1.9,0,3.6,1.2,4.1,3l0.4-0.1C36.5,10.5,29.5,4.3,20.8,3.9z"/>
</svg>
