<?xml version="1.0" encoding="UTF-8" standalone="no"?>
<svg width="18px" height="16px" viewBox="0 0 18 16" version="1.1" xmlns="http://www.w3.org/2000/svg" xmlns:xlink="http://www.w3.org/1999/xlink" xmlns:sketch="http://www.bohemiancoding.com/sketch/ns">
    <!-- Generator: Sketch 3.3.3 (12072) - http://www.bohemiancoding.com/sketch -->
    <title>Group + Path Copy 3</title>
    <desc>Created with Sketch.</desc>
    <defs></defs>
    <g id="level-badges/notifier" stroke="none" stroke-width="1" fill="none" fill-rule="evenodd" sketch:type="MSPage">
        <g id="browser-icons" sketch:type="MSArtboardGroup" transform="translate(-279.000000, -73.000000)" fill="#F9204C">
            <g id="Group-+-Path-Copy-3" sketch:type="MSLayerGroup" transform="translate(279.000000, 73.000000)">
                <path d="M14.6249705,2.20953328 L14.6249705,0 L3.37499578,0 L3.37499578,2.20953328 L0,2.20953328 L0,3.31428335 L0,4.41903341 C0,6.24947896 1.51098561,7.73331676 3.37499578,7.73331676 C3.72788534,7.73331676 4.06808491,7.68005623 4.38783202,7.58139001 C5.19948475,8.72080749 6.4375682,9.54573261 7.87497891,9.83228555 L7.87497891,13.2571334 L6.74999156,13.2571334 C5.50731812,13.2571334 4.49998313,14.2463807 4.49998313,15.4666667 L13.4999831,15.4666667 C13.4999831,14.2463807 12.4926481,13.2571334 11.2500084,13.2571334 L10.1249873,13.2571334 L10.1249873,9.83228555 C11.562398,9.54573261 12.8004477,8.72084063 13.6121342,7.58139001 C13.9319151,7.68005623 14.2720809,7.73331676 14.6250042,7.73331676 C16.4890144,7.73331676 18,6.24944582 18,4.41903341 L18,3.31428335 L18,2.20953328 L14.6249705,2.20953328 Z M3.37499578,6.42142398 C2.25068344,6.42142398 1.33592458,5.52312063 1.33592458,4.41903341 L1.33592458,3.31428335 L3.37499578,3.31428335 L3.37499578,4.41903341 C3.37499578,5.11271292 3.50560812,5.77636502 3.74334282,6.38808229 C3.62376672,6.40959199 3.50078187,6.42142398 3.37499578,6.42142398 Z M16.6640417,4.41906656 C16.6640417,5.52315377 15.7493166,6.42145713 14.6250042,6.42145713 C14.4991844,6.42145713 14.3762333,6.40962514 14.2566909,6.38811544 C14.4943919,5.77639816 14.6250042,5.11277921 14.6250042,4.41906656 L14.6250042,3.31431649 L16.6640417,3.31431649 L16.6640417,4.41906656 Z M8.28147552,3.7339297 L8.91988049,1.77307602 C8.96459368,1.63422973 9.03663159,1.63422973 9.08134478,1.77307602 L9.71974975,3.7339297 L11.7864927,3.7339297 C11.9305685,3.7339297 11.9554092,3.80334045 11.836174,3.88762493 L10.1643976,5.09983409 L10.8027777,7.06068776 C10.8475157,7.19950926 10.7878733,7.2416515 10.6711222,7.15488807 L8.99934576,5.9427037 L7.327619,7.15488807 C7.21086789,7.23917255 7.15122547,7.19703031 7.1959635,7.06068776 L7.83434363,5.09983409 L6.16256718,3.88762493 C6.04584092,3.80334045 6.06819751,3.7339297 6.21475741,3.7339297 L8.28147552,3.7339297 Z" id="Path" sketch:type="MSShapeGroup"></path>
            </g>
        </g>
    </g>
</svg>