<?xml version="1.0" encoding="utf-8"?>
<!-- Generator: Adobe Illustrator 19.1.0, SVG Export Plug-In . SVG Version: 6.00 Build 0)  -->
<svg version="1.1" id="Ebene_1" xmlns="http://www.w3.org/2000/svg" xmlns:xlink="http://www.w3.org/1999/xlink" x="0px" y="0px"
	 viewBox="0 0 223.1 383.1" style="enable-background:new 0 0 223.1 383.1;" xml:space="preserve">
<style type="text/css">
	.st0{fill:#FFC802;}
</style>
<g>
	<path class="st0" d="M39,372.3c1-5.8,2.1-12.4,3.2-19.1c2.6-14.9,5.2-29.8,7.6-44.8c0.2-1-0.5-2.6-1.3-3.3
		C33.7,290.6,18.7,276.2,4,261.6c-1.8-1.8-3.3-4.3-3.8-6.7c-1-5.3,2.6-9.9,8-10.7c14.7-2.2,29.5-4.3,44.2-6.5
		c6.2-0.9,12.3-1.9,18.5-2.6c2.1-0.3,3.1-1.2,4-3c9.1-18.5,18.2-37,27.3-55.5c2.4-4.8,6.3-6.8,11.5-5.8c3.5,0.7,5.6,2.9,7.2,6
		c9.1,18.6,18.3,37.2,27.4,55.8c0.8,1.6,1.7,2.3,3.5,2.6c18.9,2.7,37.7,5.4,56.6,8.2c2.2,0.3,4.5,0.6,6.7,1
		c7.5,1.4,10.6,10.1,5.7,15.9c-0.6,0.8-1.4,1.4-2.1,2.1c-14.7,14.3-29.3,28.6-44.1,42.9c-1.3,1.3-1.6,2.4-1.3,4.1
		c3.6,20.5,7.1,41,10.6,61.5c0.7,4.3-0.1,8-3.8,10.6c-3.7,2.6-7.4,2.2-11.3,0.1c-18.3-9.7-36.7-19.3-55-29c-1.7-0.9-2.9-0.9-4.6,0
		c-18.3,9.7-36.6,19.4-55,28.9c-2.2,1.1-5,1.8-7.4,1.5C42.1,382.4,38.9,378.1,39,372.3z"/>
	<path class="st0" d="M73.3,166.7c5.1,0.3,10.2,0.3,15.2,0.9c4.8,0.6,6.4,3.4,4.4,7.8c-3.3,7.4-7,14.7-10.8,21.9
		c-1.5,2.9-6.7,13.2-10,13.3c-4.3,0.1-7.9,0-12.3,0c-3.7,0-5.4-10.2-5.9-14.2c0.1-1.2-0.3-2.5-0.3-3.7c-0.1-5.7-0.1-11.3,0-17
		c0.2-6.2,3-8.9,9.2-8.9c3.5,0,7,0,10.5,0C73.3,166.9,73.3,166.8,73.3,166.7z"/>
	<path class="st0" d="M150.4,166.7c-5.1,0.3-10.2,0.3-15.2,0.9c-4.8,0.6-6.4,3.4-4.4,7.8c3.3,7.4,7,14.7,10.8,21.9
		c1.5,2.9,6.7,13.2,10,13.3c4.3,0.1,7.9,0,12.3,0c3.7,0,5.4-10.2,5.9-14.2c-0.1-1.2,0.3-2.5,0.3-3.7c0.1-5.7,0.1-11.3,0-17
		c-0.2-6.2-3-8.9-9.2-8.9c-3.5,0-7,0-10.5,0C150.4,166.9,150.4,166.8,150.4,166.7z"/>
	<path class="st0" d="M170.2,12c0-6.6-5.4-12-12-12H62.5c-6.6,0-12,5.4-12,12v92.9c0,0.6,0.1,1.1,0.1,1.7c-0.1,0.5-0.1,1.1-0.1,1.8
		c0.1,2.1,0.6,4.4,1.7,6.1c8.3,13.5,16.8,26.8,25.1,40.2c2.2,3.5,5.3,5.1,9.4,5.1c15.6,0,31.1-0.1,46.7,0c4.3,0,7.4-1.8,9.7-5.4
		c8.2-13.1,16.5-26.2,24.6-39.4c0.9-1.4,1.6-3,2-4.5c0.3-1.2,0.3-2.3,0.2-3.3c0.1-0.7,0.2-1.5,0.2-2.2V12z"/>
</g>
</svg>
