<?xml version="1.0" encoding="UTF-8" standalone="no"?>
<svg width="40px" height="40px" viewBox="0 0 40 40" version="1.1" xmlns="http://www.w3.org/2000/svg" xmlns:xlink="http://www.w3.org/1999/xlink" xmlns:sketch="http://www.bohemiancoding.com/sketch/ns">
    <!-- Generator: Sketch 3.3.2 (12043) - http://www.bohemiancoding.com/sketch -->
    <title>globe</title>
    <desc>Created with Sketch.</desc>
    <defs></defs>
    <g id="Page-1" stroke="none" stroke-width="1" fill="none" fill-rule="evenodd" sketch:type="MSPage">
        <g id="Dashboard" sketch:type="MSArtboardGroup" transform="translate(-205.000000, -613.000000)" fill="#FFFFFF">
            <g id="Bottom-info" sketch:type="MSLayerGroup">
                <g id="globe_1-+-Du-bist-einer-von-un" transform="translate(205.000000, 613.000000)" sketch:type="MSShapeGroup">
                    <g id="globe">
                        <path d="M11.9176,11.6976 L19.1976,11.6976 L19.1976,19.1968 L11.092,19.1968 C11.1392,16.5224 11.4296,13.992 11.9176,11.6976 L11.9176,11.6976 Z M11.9176,28.3032 L19.1976,28.3032 L19.1976,20.8032 L11.092,20.8032 C11.1392,23.4784 11.4296,26.008 11.9176,28.3032 L11.9176,28.3032 Z M19.1968,10.0904 L19.1968,0.448 C16.2504,1.0264 13.7232,4.7544 12.2992,10.0904 L19.1968,10.0904 L19.1968,10.0904 Z M29.7544,28.3032 L37.7816,28.3032 C38.8552,26.008 39.4928,23.4784 39.5984,20.8032 L30.5152,20.8032 C30.4704,23.4816 30.2136,26.0048 29.7544,28.3032 L29.7544,28.3032 Z M29.7544,11.6976 C30.2128,13.9944 30.4704,16.5192 30.516,19.1968 L39.6,19.1968 C39.4912,16.5224 38.8552,13.992 37.7824,11.6976 L29.7544,11.6976 L29.7544,11.6976 Z M29.3904,10.0904 L36.9384,10.0904 C34.3168,5.6184 29.9832,2.288 24.8296,0.9832 C26.8088,2.9456 28.3992,6.1168 29.3904,10.0904 L29.3904,10.0904 Z M19.1968,39.5512 L19.1968,29.9096 L12.2992,29.9096 C13.7232,35.244 16.2504,38.972 19.1968,39.5512 L19.1968,39.5512 Z M27.7,10.0904 C26.2776,4.756 23.7504,1.028 20.8032,0.448 L20.8032,10.0904 L27.7,10.0904 L27.7,10.0904 Z M28.9096,20.8032 L20.8032,20.8032 L20.8032,28.3032 L28.0832,28.3032 C28.5704,26.008 28.8616,23.4784 28.9096,20.8032 L28.9096,20.8032 Z M0.4,20.8032 C0.508,23.4784 1.1456,26.008 2.2184,28.3032 L10.2432,28.3032 C9.7856,26.0048 9.5272,23.4816 9.484,20.8032 L0.4,20.8032 L0.4,20.8032 Z M10.6096,29.9096 L3.0624,29.9096 C5.684,34.3816 10.0176,37.7128 15.172,39.0176 C13.192,37.0544 11.6016,33.8832 10.6096,29.9096 L10.6096,29.9096 Z M29.3904,29.9096 C28.3992,33.8832 26.8104,37.0552 24.8296,39.0176 C29.9824,37.7128 34.3144,34.38 36.9384,29.9096 L29.3904,29.9096 L29.3904,29.9096 Z M10.6096,10.0904 C11.6016,6.1168 13.1896,2.9456 15.1712,0.9832 C10.0176,2.2872 5.6856,5.6192 3.0624,10.0904 L10.6096,10.0904 L10.6096,10.0904 Z M28.0832,11.6976 L20.8032,11.6976 L20.8032,19.1968 L28.9096,19.1968 C28.8616,16.5224 28.5704,13.992 28.0832,11.6976 L28.0832,11.6976 Z M2.2184,11.6976 C1.1456,13.992 0.5072,16.5224 0.4,19.1968 L9.484,19.1968 C9.528,16.5192 9.7856,13.9944 10.2432,11.6976 L2.2184,11.6976 L2.2184,11.6976 Z M20.8032,29.9096 L20.8032,39.552 C23.7504,38.9736 26.2776,35.2456 27.7,29.9096 L20.8032,29.9096 L20.8032,29.9096 Z" id="Shape"></path>
                    </g>
                </g>
            </g>
        </g>
    </g>
</svg>