<?xml version="1.0" encoding="UTF-8" standalone="no"?>
<svg width="60px" height="60px" viewBox="0 0 60 60" version="1.1" xmlns="http://www.w3.org/2000/svg" xmlns:xlink="http://www.w3.org/1999/xlink" xmlns:sketch="http://www.bohemiancoding.com/sketch/ns">
    <!-- Generator: Sketch 3.3.2 (12043) - http://www.bohemiancoding.com/sketch -->
    <title>Smooth operator_icn</title>
    <desc>Created with Sketch.</desc>
    <defs></defs>
    <g id="Page-1" stroke="none" stroke-width="1" fill="none" fill-rule="evenodd" sketch:type="MSPage">
        <g id="Dashboard" sketch:type="MSArtboardGroup" transform="translate(-542.000000, -414.000000)">
            <g id="Awards" sketch:type="MSLayerGroup" transform="translate(216.000000, 275.000000)">
                <g id="Smooth-Operator" transform="translate(295.000000, 139.000000)" sketch:type="MSShapeGroup">
                    <g id="lightning_1-+-Oval-1" transform="translate(31.000000, 0.000000)">
                        <g id="lightning_1">
                            <g id="Ray">
                                <g id="Smooth-operator_icn">
                                    <g id="Shape-+-Oval-1">
                                        <path d="M39.9989959,27.1265059 L32.9989959,27.1265059 L35.3896858,9.99965486 C35.3896858,9.56365486 35.1076858,9.17865486 34.6926858,9.04665486 C34.2766858,8.91565486 33.8256858,9.06665486 33.5736858,9.42265486 L19.1829959,31.5495059 C18.9679959,31.8555059 18.9399959,32.2545059 19.1119959,32.5865059 C19.2829959,32.9185059 19.6249959,33.1265059 19.9989959,33.1265059 L26.9989959,33.1265059 L24.608306,50.253357 C24.608306,50.689357 24.890306,51.073357 25.305306,51.206357 C25.405306,51.237357 25.507306,51.253357 25.608306,51.253357 C25.927306,51.253357 26.234306,51.101357 26.425306,50.830357 L40.8159959,28.7035059 C41.0309959,28.3975059 41.0599959,27.9985059 40.8879959,27.6665059 C40.8879959,27.6665059 40.3729959,27.1265059 39.9989959,27.1265059 Z" id="Shape" fill="#FFC802" transform="translate(29.999794, 30.126678) rotate(20.000000) translate(-29.999794, -30.126678) "></path>
                                        <circle id="Oval-1" stroke="#FFC802" stroke-width="5" cx="30" cy="30" r="30"></circle>
                                    </g>
                                </g>
                            </g>
                        </g>
                    </g>
                </g>
            </g>
        </g>
    </g>
</svg>