<?xml version="1.0" encoding="UTF-8" standalone="no"?>
<svg width="38px" height="60px" viewBox="0 0 38 60" version="1.1" xmlns="http://www.w3.org/2000/svg" xmlns:xlink="http://www.w3.org/1999/xlink" xmlns:sketch="http://www.bohemiancoding.com/sketch/ns">
    <!-- Generator: Sketch 3.3.2 (12043) - http://www.bohemiancoding.com/sketch -->
    <title>Shape</title>
    <desc>Created with Sketch.</desc>
    <defs></defs>
    <g id="Page-1" stroke="none" stroke-width="1" fill="none" fill-rule="evenodd" sketch:type="MSPage">
        <g id="Dashboard" sketch:type="MSArtboardGroup" transform="translate(-395.000000, -414.000000)" fill="#56EAC6">
            <g id="Awards" sketch:type="MSLayerGroup" transform="translate(216.000000, 275.000000)">
                <g id="Smooth-Operator" transform="translate(165.000000, 139.000000)" sketch:type="MSShapeGroup">
                    <g id="Visionary-+-Shape">
                        <path d="M51.5,18.75 C51.5,28.9453125 45.3549219,30.1318359 44.2014453,41.25 C44.2014453,42.2864062 43.3628516,43.125 42.3264453,43.125 L23.1735547,43.125 C22.1371484,43.125 21.2985547,42.2864062 21.2985547,41.25 L21.2949219,41.25 C20.1450781,30.1318359 14,28.9453125 14,18.75 C14,8.39355469 22.3935547,0 32.75,0 C43.1064453,0 51.5,8.39355469 51.5,18.75 L51.5,18.75 Z M42.125,45 L23.375,45 C22.3385938,45 21.5,45.8385938 21.5,46.875 C21.5,47.9114062 22.3385938,48.75 23.375,48.75 L42.125,48.75 C43.1614062,48.75 44,47.9114062 44,46.875 C44,45.8385938 43.1614062,45 42.125,45 L42.125,45 Z M42.125,50.625 L23.375,50.625 C22.3385938,50.625 21.5,51.4635938 21.5,52.5 C21.5,53.5364062 22.3385938,54.375 23.375,54.375 L42.125,54.375 C43.1614062,54.375 44,53.5364062 44,52.5 C44,51.4635938 43.1614062,50.625 42.125,50.625 L42.125,50.625 Z M29,60 L36.5,60 C38.5728125,60 40.25,58.3226953 40.25,56.25 L25.25,56.25 C25.25,58.3228125 26.9273047,60 29,60 L29,60 Z" id="Shape"></path>
                    </g>
                </g>
            </g>
        </g>
    </g>
</svg>