<?xml version="1.0" encoding="UTF-8" standalone="no"?>
<svg width="180px" height="180px" viewBox="0 0 180 180" version="1.1" xmlns="http://www.w3.org/2000/svg" xmlns:xlink="http://www.w3.org/1999/xlink" xmlns:sketch="http://www.bohemiancoding.com/sketch/ns">
    <!-- Generator: Sketch 3.4.3 (16618) - http://www.bohemiancoding.com/sketch -->
    <title>180 - iPhone 6 Plus</title>
    <desc>Created with Sketch.</desc>
    <defs></defs>
    <g id="Page-1" stroke="none" stroke-width="1" fill="none" fill-rule="evenodd" sketch:type="MSPage">
        <g id="180---iPhone-6-Plus" sketch:type="MSArtboardGroup" fill-opacity="0.62" fill="#4A4A4A">
            <g id="Fill-4530" sketch:type="MSLayerGroup" transform="translate(0.000000, -1.000000)">
                <path d="M165.03,117.041 C160.08,117.041 156.03,112.988 156.03,108.041 C156.03,103.058 160.08,99.041 165.03,99.041 C169.98,99.041 174.03,103.058 174.03,108.041 C174.03,112.988 169.98,117.041 165.03,117.041 L165.03,117.041 Z M102.03,105.038 C87.15,105.038 75.03,92.918 75.03,78.038 C75.03,63.161 87.15,51.038 102.03,51.038 C116.91,51.038 129.03,63.161 129.03,78.038 C129.03,92.918 116.91,105.038 102.03,105.038 L102.03,105.038 Z M15.03,174.041 C10.08,174.041 6.03,169.988 6.03,165.041 C6.03,160.058 10.08,156.041 15.03,156.041 C19.98,156.041 24.03,160.058 24.03,165.041 C24.03,169.988 19.98,174.041 15.03,174.041 L15.03,174.041 Z M165.03,6.038 C169.98,6.038 174.03,10.058 174.03,15.038 C174.03,19.988 169.98,24.038 165.03,24.038 C160.08,24.038 156.03,19.988 156.03,15.038 C156.03,10.058 160.08,6.038 165.03,6.038 L165.03,6.038 Z M114.03,165.041 C114.03,169.988 109.98,174.041 105.03,174.041 C100.08,174.041 96.03,169.988 96.03,165.041 C96.03,160.058 100.08,156.041 105.03,156.041 C109.98,156.041 114.03,160.058 114.03,165.041 L114.03,165.041 Z M15.03,51.038 C10.08,51.038 6.03,46.988 6.03,42.038 C6.03,37.058 10.08,33.038 15.03,33.038 C19.98,33.038 24.03,37.058 24.03,42.038 C24.03,46.988 19.98,51.038 15.03,51.038 L15.03,51.038 Z M165.03,93.041 C160.14,93.041 155.85,95.408 153.09,99.041 L132.96,89.438 C134.28,85.868 135.03,82.058 135.03,78.038 C135.03,69.998 132.15,62.648 127.38,56.918 L156.78,27.548 C159.15,29.108 161.97,30.041 165.03,30.041 C173.31,30.041 180.03,23.291 180.03,15.038 C180.03,6.758 173.31,0.041 165.03,0.041 C156.75,0.041 150.03,6.758 150.03,15.038 C150.03,18.098 150.96,20.918 152.52,23.291 L123.12,52.688 C117.39,47.918 110.04,45.041 102.03,45.041 C89.37,45.041 78.36,52.211 72.84,62.708 L29.73,44.888 C29.91,43.961 30.03,42.998 30.03,42.038 C30.03,33.758 23.31,27.041 15.03,27.041 C6.75,27.041 0.03,33.758 0.03,42.038 C0.03,50.291 6.75,57.041 15.03,57.041 C20.19,57.041 24.75,54.401 27.45,50.408 L70.5,68.228 C69.54,71.351 69.03,74.618 69.03,78.038 C69.03,86.048 71.91,93.398 76.68,99.128 L23.28,152.528 C20.91,150.971 18.09,150.038 15.03,150.038 C6.75,150.038 0.03,156.758 0.03,165.041 C0.03,173.291 6.75,180.041 15.03,180.041 C23.31,180.041 30.03,173.291 30.03,165.041 C30.03,161.981 29.1,159.161 27.54,156.788 L80.94,103.388 C86.64,108.161 94.02,111.041 102.03,111.041 L102.03,150.341 C95.19,151.721 90.03,157.778 90.03,165.041 C90.03,173.291 96.75,180.041 105.03,180.041 C113.31,180.041 120.03,173.291 120.03,165.041 C120.03,157.778 114.87,151.721 108.03,150.341 L108.03,110.471 C117.54,108.698 125.58,102.878 130.38,94.841 L150.51,104.438 C150.21,105.608 150.03,106.781 150.03,108.041 C150.03,116.288 156.75,123.038 165.03,123.038 C173.31,123.038 180.03,116.288 180.03,108.041 C180.03,99.758 173.31,93.041 165.03,93.041 L165.03,93.041 Z" sketch:type="MSShapeGroup"></path>
            </g>
        </g>
    </g>
</svg>