<?xml version="1.0" encoding="utf-8"?>
<!-- Generator: Adobe Illustrator 18.1.1, SVG Export Plug-In . SVG Version: 6.00 Build 0)  -->
<svg version="1.1" id="Layer_1" xmlns="http://www.w3.org/2000/svg" xmlns:xlink="http://www.w3.org/1999/xlink" x="0px" y="0px"
	 viewBox="0 0 85.8 80" enable-background="new 0 0 85.8 80" xml:space="preserve">
<path fill="#FFFFFF" d="M43,33.8c-3.4,0-6.3,2.8-6.3,6.3c0,3.4,2.8,6.3,6.3,6.3c3.4,0,6.3-2.8,6.3-6.3S46.4,33.8,43,33.8z
	 M83.6,40.9c0-5.9-3.9-11.4-11-15.5v-0.9c0.4-4.3-0.1-8.5-1.2-12c-1.2-3.7-3.2-6.6-5.8-8.2C63.4,2.8,60.7,2,57.7,2
	c-4.3,0-9.4,2-14.8,6c-5.5-4-10.4-6-14.8-6c-3,0-5.6,0.7-7.9,2.2c-2.5,1.6-4.6,4.5-5.8,8.2c-1.1,3.5-1.6,7.7-1.2,12v0.9
	c-7.1,4.1-11,9.6-11,15.5c0,6.2,4.3,11.9,12,16c0,0.1,0,0.2,0,0.3c-0.7,8.8,1.9,15.4,7,18.7c2.2,1.3,4.6,2,7.5,2
	c4.3,0,9.2-1.6,14.2-4.8c5,3.1,9.9,4.8,14.2,4.8l0,0c2.8,0,5.3-0.7,7.5-2c5.2-3.2,7.6-9.9,7-18.6c0-0.1,0-0.2,0-0.3
	C79.3,52.8,83.6,47.1,83.6,40.9z M47.4,18.8c-2.5-0.1-6.4-0.1-9,0c1.4-1.4,3-2.8,4.5-4C44.5,16.1,46,17.4,47.4,18.8z M58.9,49.6
	c-2.1,3.4-3.2,4.6-5.2,6.6c-0.2,0.2-0.4,0.4-0.6,0.7l-1,1c-2.6,0.3-5.3,0.4-8,0.4h-2.3c-2.7,0-5.4-0.1-8-0.4l-1-1
	c-0.2-0.2-0.4-0.4-0.6-0.7c-2-2.1-3.1-3.3-5.2-6.6c-1.6-2.6-3-5-4.1-7.4c1.6-3.8,3.5-7.5,5.8-11.1c1.6-2.5,3.4-5.1,5.3-7.4
	c5.2-0.6,12.7-0.6,18,0c1.9,2.3,3.7,4.8,5.3,7.4c2.2,3.5,4.2,7.2,5.8,11.1C61.9,44.7,60.5,47.1,58.9,49.6z M65.2,48.3
	c0.6,2,1,4,1.3,6c-2.2,1-4.6,1.8-7.2,2.4c1.2-1.5,1.6-2.1,3.2-4.3l0.2-0.3C63.6,50.8,64.4,49.6,65.2,48.3z M26.5,56.7
	c-2.5-0.6-4.9-1.4-7.2-2.4c0.3-1.9,0.7-3.9,1.3-6c0.7,1.3,1.6,2.5,2.5,3.8l0.2,0.3C24.9,54.6,25.3,55.2,26.5,56.7z M15,52.1
	C9.7,49,6.8,45,6.8,40.9c0-3.9,2.6-7.6,7.3-10.7l0.1,0.4c0.7,4.3,1.9,8.2,3.4,12C16.6,45.8,15.6,49,15,52.1z M17.8,23
	c-0.4-6.9,1.6-12.8,4.9-14.9c1.5-1,3.3-1.5,5.4-1.5c3.3,0,7.2,1.6,11.7,4.8c-2.8,2.3-5.6,5-8.2,8.1C26.5,20.2,21.9,21.4,17.8,23
	L17.8,23z M18.6,27.9c2.6-1.2,5.5-2.2,8.8-2.9c-0.9,1.2-1.7,2.5-2.5,3.7c-1.6,2.5-3.1,5.1-4.3,7.6c-0.8-2.5-1.4-5-1.8-7.5L18.6,27.9
	z M28.9,73.3c-1.9,0-3.7-0.4-5.1-1.3c-3.4-2.1-5.2-6.7-5-12.8c3.3,1.3,7,2.3,10.8,3l1.4,1.5c2.5,2.5,5.1,4.9,7.8,6.7
	C35.3,72.2,31.8,73.3,28.9,73.3z M43,67.5c-2-1.3-4-2.9-6-4.7c1.6,0.1,3.3,0.1,4.9,0.1h2.2c1.6,0,3.1-0.1,4.9-0.1
	C46.9,64.7,45,66.2,43,67.5z M62,71.9c-1.4,0.9-3.1,1.3-5.1,1.3c-2.9,0-6.4-1-9.9-3.1c2.7-1.9,5.3-4.2,7.8-6.7l1.4-1.5
	c3.8-0.7,7.5-1.6,10.8-3C67.2,65.2,65.4,69.8,62,71.9z M67.2,28.8c-0.4,2.5-0.9,5-1.8,7.5c-1.3-2.5-2.7-5.1-4.3-7.6
	c-0.8-1.3-1.6-2.5-2.5-3.7c3.2,0.7,6.1,1.7,8.8,2.9L67.2,28.8z M68,23v0.1c-4-1.7-8.7-2.9-13.7-3.7c-2.6-3.1-5.5-5.8-8.2-8.1
	c4.5-3.2,8.4-4.8,11.7-4.8c2.1,0,3.9,0.5,5.4,1.5C66.4,10.3,68.4,16.1,68,23z M70.9,52.1c-0.6-3.1-1.5-6.3-2.8-9.6
	c1.6-3.8,2.8-7.7,3.4-12l0.1-0.4c4.8,3.1,7.3,6.9,7.3,10.7C79,45,76.1,48.9,70.9,52.1z"/>
</svg>
